<svg xmlns="http://www.w3.org/2000/svg" viewBox="0 0 992 708.11">
  <defs>
    <style>
      .cls-1 {
        fill: #f7f8ff;
      }

      .cls-2 {
        fill: #b8b8ff;
      }

      .cls-3 {
        fill: #66f;
      }

      .cls-4 {
        fill: none;
        stroke: #b8b8ff;
      }

      .cls-5 {
        fill: #677583;
      }

      .cls-6 {
        fill: #dedede;
      }

      .cls-7 {
        fill: #909ca8;
      }

      .cls-8 {
        fill: #f2f2f2;
      }

      .cls-9 {
        fill: #4f4f4f;
      }
    </style>
  </defs>
  <g id="icon-webapp" transform="translate(-40 -32.071)">
    <rect id="Rectangle_34" data-name="Rectangle 34" class="cls-1" width="992" height="666.612" transform="translate(40 73.569)"/>
    <rect id="Rectangle_35" data-name="Rectangle 35" class="cls-2" width="872" height="1.087" transform="translate(100 610.774)"/>
    <rect id="Rectangle_36" data-name="Rectangle 36" class="cls-2" width="872" height="1.087" transform="translate(100 658.622)"/>
    <rect id="Rectangle_37" data-name="Rectangle 37" class="cls-2" width="872" height="1.087" transform="translate(100 706.47)"/>
    <path id="Path_19" data-name="Path 19" class="cls-3" d="M5.172,12V9.258H.2V7.969L5.43.547H6.578V7.969H8.125V9.258H6.578V12Zm0-4.031V2.8L1.586,7.969ZM14.75,12V4.8H13.508V3.7H14.75V2.82A3.867,3.867,0,0,1,14.9,1.578,1.784,1.784,0,0,1,15.609.7,2.573,2.573,0,0,1,17.047.352a6.884,6.884,0,0,1,1.313.141l-.211,1.227a4.718,4.718,0,0,0-.828-.078,1.232,1.232,0,0,0-.906.273,1.482,1.482,0,0,0-.266,1.023V3.7h1.617V4.8H16.148V12Zm4.125-9.836V.547h1.406V2.164Zm0,9.836V3.7h1.406V12ZM22.4,12V.547H23.8V12Zm3.594,0V.547H27.4V4.656a3.142,3.142,0,0,1,2.484-1.141,3.321,3.321,0,0,1,1.6.367,2.093,2.093,0,0,1,.969,1,4.573,4.573,0,0,1,.3,1.859V12H31.344V6.742a2.145,2.145,0,0,0-.461-1.531,1.679,1.679,0,0,0-1.289-.484,2.28,2.28,0,0,0-1.18.328,1.816,1.816,0,0,0-.781.875A4.038,4.038,0,0,0,27.4,7.461V12Zm8.383-4.148a4.277,4.277,0,0,1,1.281-3.414,3.861,3.861,0,0,1,2.609-.922,3.716,3.716,0,0,1,2.8,1.125,4.251,4.251,0,0,1,1.086,3.094,5.476,5.476,0,0,1-.484,2.523,3.377,3.377,0,0,1-1.4,1.422,4.05,4.05,0,0,1-2,.508,3.742,3.742,0,0,1-2.82-1.117A4.473,4.473,0,0,1,34.375,7.852Zm1.445,0a3.55,3.55,0,0,0,.7,2.391,2.319,2.319,0,0,0,3.492-.008,3.617,3.617,0,0,0,.7-2.43A3.4,3.4,0,0,0,40,5.477a2.208,2.208,0,0,0-1.734-.8,2.234,2.234,0,0,0-1.75.789A3.518,3.518,0,0,0,35.82,7.852Zm11.055,2.891.2,1.242a5.218,5.218,0,0,1-1.062.125,2.406,2.406,0,0,1-1.187-.242,1.361,1.361,0,0,1-.594-.633,5.074,5.074,0,0,1-.172-1.664V4.8H43.031V3.7h1.031V1.648L45.461.8V3.7h1.414V4.8H45.461V9.648a2.583,2.583,0,0,0,.07.773.615.615,0,0,0,.242.273.958.958,0,0,0,.484.1A4.584,4.584,0,0,0,46.875,10.742Zm7.063-1.414,1.453.18a3.545,3.545,0,0,1-1.273,1.977,4.326,4.326,0,0,1-5.266-.414,4.4,4.4,0,0,1-1.062-3.148,4.584,4.584,0,0,1,1.078-3.25,3.649,3.649,0,0,1,2.8-1.156,3.547,3.547,0,0,1,2.719,1.133,4.5,4.5,0,0,1,1.055,3.188q0,.125-.008.375H49.242a3.189,3.189,0,0,0,.773,2.094,2.3,2.3,0,0,0,1.734.727,2.152,2.152,0,0,0,1.32-.406A2.7,2.7,0,0,0,53.938,9.328ZM49.32,7.055h4.633a2.811,2.811,0,0,0-.531-1.57,2.155,2.155,0,0,0-1.742-.812,2.247,2.247,0,0,0-1.633.648A2.576,2.576,0,0,0,49.32,7.055ZM56.6,9.523,57.992,9.3a1.951,1.951,0,0,0,.648,1.281,2.29,2.29,0,0,0,1.5.445,2.214,2.214,0,0,0,1.438-.391,1.191,1.191,0,0,0,.469-.93.854.854,0,0,0-.414-.75A6.1,6.1,0,0,0,60.2,8.484a13.662,13.662,0,0,1-2.148-.672,2.138,2.138,0,0,1-.961-2.93,2.3,2.3,0,0,1,.7-.789,2.844,2.844,0,0,1,.891-.406,4.2,4.2,0,0,1,1.219-.172A4.77,4.77,0,0,1,61.6,3.8a2.319,2.319,0,0,1,1.094.766,2.946,2.946,0,0,1,.484,1.281L61.8,6.031a1.5,1.5,0,0,0-.547-1,1.969,1.969,0,0,0-1.266-.359,2.3,2.3,0,0,0-1.383.32.932.932,0,0,0-.414.75.776.776,0,0,0,.172.492,1.241,1.241,0,0,0,.539.375q.211.078,1.242.359a16.393,16.393,0,0,1,2.078.656,2.083,2.083,0,0,1,.93.734,2.06,2.06,0,0,1,.336,1.2,2.363,2.363,0,0,1-.414,1.328,2.659,2.659,0,0,1-1.18.961,4.352,4.352,0,0,1-1.75.336,3.916,3.916,0,0,1-2.469-.672A3.132,3.132,0,0,1,56.6,9.523Z" transform="translate(115 676.021)"/>
    <path id="Path_20" data-name="Path 20" class="cls-3" d="M1.258,12V.547H6.336A6.68,6.68,0,0,1,8.664.859,2.525,2.525,0,0,1,9.938,1.945a3.252,3.252,0,0,1,.477,1.727,2.881,2.881,0,0,1-.789,2.055A3.993,3.993,0,0,1,7.188,6.789a3.93,3.93,0,0,1,.914.57A7.875,7.875,0,0,1,9.359,8.883L11.352,12H9.445L7.93,9.617Q7.266,8.586,6.836,8.039a3.389,3.389,0,0,0-.773-.766,2.227,2.227,0,0,0-.687-.3,4.553,4.553,0,0,0-.844-.055H2.773V12ZM2.773,5.6H6.031a4.97,4.97,0,0,0,1.625-.211A1.756,1.756,0,0,0,8.547,4.7a1.879,1.879,0,0,0,.3-1.031,1.7,1.7,0,0,0-.594-1.336A2.744,2.744,0,0,0,6.4,1.813H2.773Zm15.258,5.375a5.216,5.216,0,0,1-1.508.938,4.313,4.313,0,0,1-1.547.273,3.028,3.028,0,0,1-2.1-.664,2.217,2.217,0,0,1-.734-1.711A2.274,2.274,0,0,1,12.414,8.7a2.337,2.337,0,0,1,.727-.812,3.47,3.47,0,0,1,1.016-.461,10.053,10.053,0,0,1,1.25-.211,12.854,12.854,0,0,0,2.508-.484q.008-.289.008-.367a1.552,1.552,0,0,0-.4-1.211,2.353,2.353,0,0,0-1.6-.477,2.481,2.481,0,0,0-1.469.352,2.115,2.115,0,0,0-.7,1.227L12.383,6.07A3.374,3.374,0,0,1,13,4.648a2.666,2.666,0,0,1,1.242-.836,5.474,5.474,0,0,1,1.883-.3,4.984,4.984,0,0,1,1.727.25,2.255,2.255,0,0,1,.976.633,2.181,2.181,0,0,1,.438.953,7.916,7.916,0,0,1,.07,1.3V8.523a20.905,20.905,0,0,0,.086,2.484,3.206,3.206,0,0,0,.359.992H18.313A2.983,2.983,0,0,1,18.031,10.977Zm-.117-3.141a10.32,10.32,0,0,1-2.3.531,5.313,5.313,0,0,0-1.227.281,1.214,1.214,0,0,0-.555.461,1.182,1.182,0,0,0-.2.664,1.2,1.2,0,0,0,.422.937,1.848,1.848,0,0,0,1.25.375,2.925,2.925,0,0,0,1.445-.352,2.211,2.211,0,0,0,.93-.977,3.4,3.4,0,0,0,.227-1.406Zm8.9,7.344V11.117a2.507,2.507,0,0,1-.922.766,2.671,2.671,0,0,1-1.25.3,3.327,3.327,0,0,1-2.547-1.18,4.656,4.656,0,0,1-1.063-3.234,5.591,5.591,0,0,1,.43-2.242,3.242,3.242,0,0,1,1.258-1.5,3.363,3.363,0,0,1,1.812-.516,2.779,2.779,0,0,1,2.422,1.3V3.7h1.266V15.18ZM22.477,7.828a3.684,3.684,0,0,0,.672,2.406,2.041,2.041,0,0,0,1.609.8,1.974,1.974,0,0,0,1.547-.758,3.524,3.524,0,0,0,.648-2.32,3.854,3.854,0,0,0-.687-2.492,2.016,2.016,0,0,0-1.6-.836,1.945,1.945,0,0,0-1.555.781A3.8,3.8,0,0,0,22.477,7.828ZM35.867,12V10.781a3.037,3.037,0,0,1-2.633,1.406,3.381,3.381,0,0,1-1.375-.281,2.307,2.307,0,0,1-.945-.7,2.719,2.719,0,0,1-.43-1.047A7.138,7.138,0,0,1,30.4,8.844V3.7H31.8V8.3a8.2,8.2,0,0,0,.086,1.484,1.484,1.484,0,0,0,.562.875,1.759,1.759,0,0,0,1.063.313,2.335,2.335,0,0,0,1.188-.32,1.8,1.8,0,0,0,.781-.883,4.4,4.4,0,0,0,.234-1.625V3.7h1.406V12Zm9.148-2.672,1.453.18A3.546,3.546,0,0,1,45.2,11.484a4.326,4.326,0,0,1-5.266-.414,4.4,4.4,0,0,1-1.062-3.148,4.585,4.585,0,0,1,1.078-3.25,3.65,3.65,0,0,1,2.8-1.156,3.547,3.547,0,0,1,2.719,1.133,4.5,4.5,0,0,1,1.055,3.188q0,.125-.008.375H40.32a3.188,3.188,0,0,0,.773,2.094,2.3,2.3,0,0,0,1.734.727,2.152,2.152,0,0,0,1.32-.406A2.7,2.7,0,0,0,45.016,9.328ZM40.4,7.055h4.633a2.81,2.81,0,0,0-.531-1.57,2.155,2.155,0,0,0-1.742-.812,2.247,2.247,0,0,0-1.633.648A2.576,2.576,0,0,0,40.4,7.055ZM48.211,12V.547h1.406V12Z" transform="translate(429 676.021)"/>
    <path id="Path_21" data-name="Path 21" class="cls-3" d="M8.83,11.418l1.154-1.255L8.472,8.52,7.318,9.775v.606h.955v1.038ZM13.2,3.633a.221.221,0,0,0-.328.011L9.4,7.429a.271.271,0,0,0-.01.357.221.221,0,0,0,.328-.011l3.48-3.785A.271.271,0,0,0,13.2,3.633Zm.8,6.423V12.11a3,3,0,0,1-2.864,3.114H2.864A3,3,0,0,1,0,12.11v-9A3,3,0,0,1,2.864,0h8.273A2.59,2.59,0,0,1,12.3.271a.348.348,0,0,1,.179.248.359.359,0,0,1-.09.313l-.487.53a.284.284,0,0,1-.318.087,1.587,1.587,0,0,0-.447-.065H2.863a1.67,1.67,0,0,0-1.591,1.73v9a1.67,1.67,0,0,0,1.591,1.73h8.273a1.67,1.67,0,0,0,1.591-1.73V10.748a.351.351,0,0,1,.09-.238l.636-.692a.29.29,0,0,1,.348-.075A.339.339,0,0,1,14,10.056Zm-.955-7.98L15.909,5.19,9.227,12.456H6.364V9.342ZM17.461,3.5l-.914.994L13.682,1.384,14.6.39a.912.912,0,0,1,1.352,0l1.511,1.644A1.118,1.118,0,0,1,17.461,3.5Z" transform="translate(819 676.021)"/>
    <path id="Path_22" data-name="Path 22" class="cls-3" d="M20.222,7.612a12.737,12.737,0,0,0-4.63-4.665,6.27,6.27,0,0,1,.741,2.974,5.7,5.7,0,0,1-5.444,5.921A5.7,5.7,0,0,1,5.444,5.921a6.275,6.275,0,0,1,.741-2.974,12.732,12.732,0,0,0-4.63,4.665c2.078,3.489,5.432,5.921,9.333,5.921S18.144,11.1,20.222,7.612Zm-8.75-5.075a.619.619,0,0,0-.583-.634A3.881,3.881,0,0,0,7.194,5.921a.585.585,0,1,0,1.167,0,2.66,2.66,0,0,1,2.528-2.749A.619.619,0,0,0,11.472,2.537ZM21.778,7.612a1.943,1.943,0,0,1-.243.912,12.57,12.57,0,0,1-10.645,6.7A12.6,12.6,0,0,1,.243,8.524a1.829,1.829,0,0,1,0-1.824A12.6,12.6,0,0,1,10.889,0,12.6,12.6,0,0,1,21.534,6.7,1.955,1.955,0,0,1,21.778,7.612Z" transform="translate(721 674.934)"/>
    <path id="Path_23" data-name="Path 23" class="cls-3" d="M4.667,12.37V5.393a.3.3,0,0,0-.292-.317H3.792a.3.3,0,0,0-.292.317V12.37a.3.3,0,0,0,.292.317h.583A.3.3,0,0,0,4.667,12.37ZM7,12.37V5.393a.3.3,0,0,0-.292-.317H6.125a.3.3,0,0,0-.292.317V12.37a.3.3,0,0,0,.292.317h.583A.3.3,0,0,0,7,12.37Zm2.333,0V5.393a.3.3,0,0,0-.292-.317H8.458a.3.3,0,0,0-.292.317V12.37a.3.3,0,0,0,.292.317h.583A.3.3,0,0,0,9.333,12.37ZM4.375,2.538H8.458l-.437-1.16a.348.348,0,0,0-.155-.109H4.976a.306.306,0,0,0-.155.109Zm8.458.317V3.49a.3.3,0,0,1-.292.317h-.875v9.4c0,1.09-.656,2.022-1.458,2.022H2.625c-.8,0-1.458-.892-1.458-1.982V3.806H.292A.3.3,0,0,1,0,3.489V2.855a.3.3,0,0,1,.292-.317H3.108L3.746.882A1.422,1.422,0,0,1,4.958,0H7.875A1.421,1.421,0,0,1,9.087.882l.638,1.655h2.816a.3.3,0,0,1,.292.317Z" transform="translate(921 676.021)"/>
    <path id="Path_24" data-name="Path 24" class="cls-3" d="M1.164,12V.547H4.875a13.457,13.457,0,0,1,2.75.172A3,3,0,0,1,9.273,1.844,3.538,3.538,0,0,1,9.938,4.07a3.737,3.737,0,0,1-.383,1.773,3.16,3.16,0,0,1-.977,1.133,3.349,3.349,0,0,1-1.2.539,13.2,13.2,0,0,1-2.4.164H3.477V12ZM3.477,2.484v3.25H4.742a5.98,5.98,0,0,0,1.828-.18,1.5,1.5,0,0,0,.719-.562A1.523,1.523,0,0,0,7.555,4.1,1.48,1.48,0,0,0,7.188,3.07a1.6,1.6,0,0,0-.93-.508,11.116,11.116,0,0,0-1.664-.078Zm9.984,3.75-1.992-.359a3.1,3.1,0,0,1,1.156-1.781,4.231,4.231,0,0,1,2.438-.578,5.2,5.2,0,0,1,2.188.352,2.13,2.13,0,0,1,1.008.883,4.446,4.446,0,0,1,.3,1.961l-.024,2.563a9.3,9.3,0,0,0,.1,1.617,4.869,4.869,0,0,0,.4,1.109H16.859q-.086-.219-.211-.648-.055-.2-.078-.258a3.959,3.959,0,0,1-1.2.82A3.446,3.446,0,0,1,14,12.188a2.841,2.841,0,0,1-2.023-.7,2.317,2.317,0,0,1-.734-1.758,2.34,2.34,0,0,1,.336-1.25,2.168,2.168,0,0,1,.938-.844,7.292,7.292,0,0,1,1.75-.516A11.959,11.959,0,0,0,16.4,6.586V6.367a1.124,1.124,0,0,0-.312-.9,1.852,1.852,0,0,0-1.18-.273,1.551,1.551,0,0,0-.914.234A1.577,1.577,0,0,0,13.461,6.234ZM16.4,8.016a13.712,13.712,0,0,1-1.336.336,4.024,4.024,0,0,0-1.2.383.915.915,0,0,0-.43.773,1.077,1.077,0,0,0,.344.8,1.2,1.2,0,0,0,.875.336,1.9,1.9,0,0,0,1.133-.391,1.375,1.375,0,0,0,.523-.727,4.335,4.335,0,0,0,.086-1.07ZM27.961,6.156,25.8,6.547a1.561,1.561,0,0,0-.5-.977,1.483,1.483,0,0,0-1-.328,1.647,1.647,0,0,0-1.312.57A2.9,2.9,0,0,0,22.5,7.7a3.378,3.378,0,0,0,.492,2.086,1.64,1.64,0,0,0,1.336.609,1.49,1.49,0,0,0,1.024-.352,2.16,2.16,0,0,0,.563-1.227l2.156.367a3.826,3.826,0,0,1-1.289,2.242,3.99,3.99,0,0,1-2.555.758,3.811,3.811,0,0,1-2.906-1.148,4.463,4.463,0,0,1-1.078-3.18,4.449,4.449,0,0,1,1.086-3.2,3.85,3.85,0,0,1,2.938-1.148,3.972,3.972,0,0,1,2.406.656A3.585,3.585,0,0,1,27.961,6.156Zm1.672-3.578V.547h2.2V2.578Zm0,9.422V3.7h2.2V12Zm9.258-2.641,2.188.367a3.6,3.6,0,0,1-1.336,1.836,3.912,3.912,0,0,1-2.273.625,3.712,3.712,0,0,1-3.2-1.414,4.751,4.751,0,0,1-.82-2.859,4.567,4.567,0,0,1,1.078-3.227A3.545,3.545,0,0,1,37.25,3.516a3.677,3.677,0,0,1,2.922,1.227A5.4,5.4,0,0,1,41.2,8.484H35.7a2.236,2.236,0,0,0,.531,1.523,1.667,1.667,0,0,0,1.266.539,1.344,1.344,0,0,0,.867-.281A1.737,1.737,0,0,0,38.891,9.359Zm.125-2.219A2.1,2.1,0,0,0,38.523,5.7a1.5,1.5,0,0,0-1.141-.5,1.525,1.525,0,0,0-1.187.523,2.025,2.025,0,0,0-.461,1.422ZM50.539,12h-2.2V7.766A6.491,6.491,0,0,0,48.2,6.031a1.21,1.21,0,0,0-.461-.617,1.288,1.288,0,0,0-.758-.219,1.761,1.761,0,0,0-1.024.313,1.6,1.6,0,0,0-.625.828,7.326,7.326,0,0,0-.164,1.906V12h-2.2V3.7h2.039V4.922A3.322,3.322,0,0,1,47.75,3.516a3.252,3.252,0,0,1,1.328.266,2.166,2.166,0,0,1,.906.664,2.346,2.346,0,0,1,.43.922,6.651,6.651,0,0,1,.125,1.477Zm6.039-8.3v1.75h-1.5V8.8a9.237,9.237,0,0,0,.039,1.188.507.507,0,0,0,.2.273.638.638,0,0,0,.375.109,2.838,2.838,0,0,0,.883-.211l.188,1.7a4.365,4.365,0,0,1-1.734.328,2.8,2.8,0,0,1-1.07-.2,1.63,1.63,0,0,1-.7-.516,2.106,2.106,0,0,1-.3-.859,10.638,10.638,0,0,1-.07-1.547V5.453H51.867V3.7h1.008V2.055l2.2-1.281V3.7Zm6.328,5.656,2.188.367a3.6,3.6,0,0,1-1.336,1.836,3.912,3.912,0,0,1-2.273.625,3.712,3.712,0,0,1-3.2-1.414,4.751,4.751,0,0,1-.82-2.859,4.566,4.566,0,0,1,1.078-3.227,3.545,3.545,0,0,1,2.726-1.172,3.677,3.677,0,0,1,2.922,1.227,5.394,5.394,0,0,1,1.023,3.742h-5.5a2.236,2.236,0,0,0,.531,1.523,1.667,1.667,0,0,0,1.266.539,1.344,1.344,0,0,0,.867-.281A1.736,1.736,0,0,0,62.906,9.359Zm.125-2.219A2.1,2.1,0,0,0,62.539,5.7,1.5,1.5,0,0,0,61.4,5.2a1.525,1.525,0,0,0-1.187.523,2.026,2.026,0,0,0-.461,1.422Zm3.2,2.492,2.2-.336a1.632,1.632,0,0,0,.57.977,1.944,1.944,0,0,0,1.2.328,2.173,2.173,0,0,0,1.281-.312.7.7,0,0,0,.289-.586.576.576,0,0,0-.156-.414A1.75,1.75,0,0,0,70.891,9a11.844,11.844,0,0,1-3.367-1.07,2.138,2.138,0,0,1-.984-1.867,2.3,2.3,0,0,1,.852-1.812,3.976,3.976,0,0,1,2.641-.734,4.607,4.607,0,0,1,2.531.555A2.835,2.835,0,0,1,73.7,5.711l-2.07.383a1.273,1.273,0,0,0-.508-.742,1.823,1.823,0,0,0-1.055-.258,2.385,2.385,0,0,0-1.242.242.52.52,0,0,0-.25.445.485.485,0,0,0,.219.4,8.222,8.222,0,0,0,2.047.617,6.111,6.111,0,0,1,2.453.977,2.03,2.03,0,0,1,.688,1.633,2.506,2.506,0,0,1-.953,1.961,4.219,4.219,0,0,1-2.82.82,4.647,4.647,0,0,1-2.687-.687A3.173,3.173,0,0,1,66.234,9.633Z" transform="translate(115 628.173)"/>
    <path id="Path_25" data-name="Path 25" class="cls-3" d="M3.742,12V2.484H.344V.547h9.1V2.484H6.055V12ZM15.2,12V10.758a3.19,3.19,0,0,1-1.2,1.047,3.317,3.317,0,0,1-1.555.383,3.047,3.047,0,0,1-1.5-.367,2.168,2.168,0,0,1-.961-1.031,4.6,4.6,0,0,1-.3-1.836V3.7h2.2V7.516a10.991,10.991,0,0,0,.117,2.148,1.211,1.211,0,0,0,.445.625,1.374,1.374,0,0,0,.813.227,1.742,1.742,0,0,0,1.008-.3,1.593,1.593,0,0,0,.609-.766A8.939,8.939,0,0,0,15.047,7.2V3.7h2.2V12Zm8.125-8.3v1.75h-1.5V8.8a9.237,9.237,0,0,0,.039,1.188.507.507,0,0,0,.2.273.638.638,0,0,0,.375.109,2.838,2.838,0,0,0,.883-.211l.188,1.7a4.365,4.365,0,0,1-1.734.328,2.8,2.8,0,0,1-1.07-.2,1.63,1.63,0,0,1-.7-.516,2.106,2.106,0,0,1-.3-.859,10.639,10.639,0,0,1-.07-1.547V5.453H18.617V3.7h1.008V2.055l2.2-1.281V3.7Zm1.016,4.031a4.488,4.488,0,0,1,.539-2.117,3.707,3.707,0,0,1,1.523-1.562,4.555,4.555,0,0,1,2.211-.539A4.135,4.135,0,0,1,31.7,4.742a4.211,4.211,0,0,1,1.2,3.086,4.28,4.28,0,0,1-1.219,3.125,4.1,4.1,0,0,1-3.055,1.234,4.843,4.843,0,0,1-2.18-.516,3.547,3.547,0,0,1-1.57-1.508A5.06,5.06,0,0,1,24.344,7.734Zm2.25.117a2.749,2.749,0,0,0,.586,1.891,1.862,1.862,0,0,0,1.445.656,1.838,1.838,0,0,0,1.438-.656,2.774,2.774,0,0,0,.586-1.906,2.724,2.724,0,0,0-.586-1.875A1.838,1.838,0,0,0,28.625,5.3a1.862,1.862,0,0,0-1.445.656A2.749,2.749,0,0,0,26.594,7.852ZM36.734,12h-2.2V3.7h2.039v1.18a3.581,3.581,0,0,1,.938-1.1,1.752,1.752,0,0,1,.953-.266,2.786,2.786,0,0,1,1.445.414l-.68,1.914A1.927,1.927,0,0,0,38.2,5.484a1.206,1.206,0,0,0-.781.258,1.73,1.73,0,0,0-.508.914,13.317,13.317,0,0,0-.18,2.781Z" transform="translate(435 628.173)"/>
    <path id="Path_26" data-name="Path 26" class="cls-3" d="M4.086,12-.008.547H2.5L5.4,9.023,8.2.547h2.453L6.555,12ZM15.734,9.359l2.188.367a3.6,3.6,0,0,1-1.336,1.836,3.912,3.912,0,0,1-2.273.625,3.712,3.712,0,0,1-3.2-1.414,4.75,4.75,0,0,1-.82-2.859,4.566,4.566,0,0,1,1.078-3.227,3.545,3.545,0,0,1,2.727-1.172,3.677,3.677,0,0,1,2.922,1.227,5.4,5.4,0,0,1,1.024,3.742h-5.5a2.236,2.236,0,0,0,.531,1.523,1.667,1.667,0,0,0,1.266.539,1.344,1.344,0,0,0,.867-.281A1.737,1.737,0,0,0,15.734,9.359Zm.125-2.219A2.1,2.1,0,0,0,15.367,5.7a1.5,1.5,0,0,0-1.141-.5,1.525,1.525,0,0,0-1.187.523,2.026,2.026,0,0,0-.461,1.422ZM21.938,12h-2.2V3.7h2.039v1.18a3.58,3.58,0,0,1,.938-1.1,1.751,1.751,0,0,1,.953-.266,2.786,2.786,0,0,1,1.445.414l-.68,1.914a1.926,1.926,0,0,0-1.031-.359,1.206,1.206,0,0,0-.781.258,1.73,1.73,0,0,0-.508.914,13.317,13.317,0,0,0-.18,2.781Z" transform="translate(721 628.173)"/>
    <path id="Path_27" data-name="Path 27" class="cls-3" d="M1.164,12V.547H9.656V2.484H3.477V5.023h5.75v1.93H3.477V10.07h6.4V12ZM19.43,12H17.391V10.781a3.32,3.32,0,0,1-1.2,1.063,3.082,3.082,0,0,1-1.391.344,3.176,3.176,0,0,1-2.453-1.148A4.715,4.715,0,0,1,11.328,7.82a4.618,4.618,0,0,1,.992-3.2,3.229,3.229,0,0,1,2.508-1.1,3.106,3.106,0,0,1,2.406,1.156V.547h2.2ZM13.57,7.672a3.8,3.8,0,0,0,.367,1.922,1.659,1.659,0,0,0,1.484.859,1.619,1.619,0,0,0,1.289-.641,2.992,2.992,0,0,0,.531-1.93,3.238,3.238,0,0,0-.516-2.055,1.628,1.628,0,0,0-1.32-.633,1.656,1.656,0,0,0-1.312.625A2.8,2.8,0,0,0,13.57,7.672ZM21.6,2.578V.547h2.2V2.578ZM21.6,12V3.7h2.2V12Zm8.258-8.3v1.75h-1.5V8.8A9.268,9.268,0,0,0,28.4,9.984a.507.507,0,0,0,.2.273.637.637,0,0,0,.375.109,2.839,2.839,0,0,0,.883-.211l.188,1.7a4.365,4.365,0,0,1-1.734.328,2.8,2.8,0,0,1-1.07-.2,1.631,1.631,0,0,1-.7-.516,2.106,2.106,0,0,1-.3-.859,10.634,10.634,0,0,1-.07-1.547V5.453H25.148V3.7h1.008V2.055l2.2-1.281V3.7Zm3.164,2.531-1.992-.359a3.1,3.1,0,0,1,1.156-1.781,4.231,4.231,0,0,1,2.438-.578,5.2,5.2,0,0,1,2.188.352,2.13,2.13,0,0,1,1.008.883,4.446,4.446,0,0,1,.3,1.961l-.023,2.563a9.306,9.306,0,0,0,.1,1.617,4.864,4.864,0,0,0,.4,1.109H36.422q-.086-.219-.211-.648-.055-.2-.078-.258a3.959,3.959,0,0,1-1.2.82,3.446,3.446,0,0,1-1.367.273,2.841,2.841,0,0,1-2.023-.7A2.317,2.317,0,0,1,30.8,9.734a2.34,2.34,0,0,1,.336-1.25,2.168,2.168,0,0,1,.937-.844,7.292,7.292,0,0,1,1.75-.516,11.959,11.959,0,0,0,2.133-.539V6.367a1.124,1.124,0,0,0-.312-.9,1.852,1.852,0,0,0-1.18-.273,1.551,1.551,0,0,0-.914.234A1.577,1.577,0,0,0,33.023,6.234Zm2.938,1.781a13.712,13.712,0,0,1-1.336.336,4.024,4.024,0,0,0-1.2.383.915.915,0,0,0-.43.773,1.077,1.077,0,0,0,.344.8,1.2,1.2,0,0,0,.875.336,1.9,1.9,0,0,0,1.133-.391,1.375,1.375,0,0,0,.523-.727,4.335,4.335,0,0,0,.086-1.07ZM42.391,12H40.2V3.7h2.039v1.18a3.579,3.579,0,0,1,.938-1.1,1.751,1.751,0,0,1,.953-.266,2.786,2.786,0,0,1,1.445.414l-.68,1.914a1.926,1.926,0,0,0-1.031-.359,1.207,1.207,0,0,0-.781.258,1.73,1.73,0,0,0-.508.914,13.317,13.317,0,0,0-.18,2.781Z" transform="translate(806 628.173)"/>
    <path id="Path_28" data-name="Path 28" class="cls-3" d="M1.164,12V.547H9.656V2.484H3.477V5.023h5.75v1.93H3.477V10.07h6.4V12Zm9.6,0,2.992-4.273L10.891,3.7h2.68l1.469,2.281L16.586,3.7h2.578l-2.812,3.93L19.422,12h-2.7L15.039,9.43,13.336,12Zm17.2-5.844L25.8,6.547a1.561,1.561,0,0,0-.5-.977,1.483,1.483,0,0,0-1-.328,1.647,1.647,0,0,0-1.312.57A2.9,2.9,0,0,0,22.5,7.7a3.378,3.378,0,0,0,.492,2.086,1.64,1.64,0,0,0,1.336.609,1.49,1.49,0,0,0,1.024-.352,2.16,2.16,0,0,0,.563-1.227l2.156.367a3.826,3.826,0,0,1-1.289,2.242,3.99,3.99,0,0,1-2.555.758,3.811,3.811,0,0,1-2.906-1.148,4.463,4.463,0,0,1-1.078-3.18,4.449,4.449,0,0,1,1.086-3.2,3.85,3.85,0,0,1,2.938-1.148,3.972,3.972,0,0,1,2.406.656A3.585,3.585,0,0,1,27.961,6.156ZM29.633,12V.547h2.2V12Zm9.914,0V10.758a3.19,3.19,0,0,1-1.2,1.047,3.317,3.317,0,0,1-1.555.383,3.047,3.047,0,0,1-1.5-.367,2.168,2.168,0,0,1-.961-1.031,4.6,4.6,0,0,1-.3-1.836V3.7h2.2V7.516a10.982,10.982,0,0,0,.117,2.148,1.21,1.21,0,0,0,.445.625,1.374,1.374,0,0,0,.813.227,1.742,1.742,0,0,0,1.008-.3,1.593,1.593,0,0,0,.609-.766A8.946,8.946,0,0,0,39.391,7.2V3.7h2.2V12Zm4.32-9.422V.547h2.2V2.578Zm0,9.422V3.7h2.2V12Zm6.555,0h-2.2V3.7h2.039v1.18a3.581,3.581,0,0,1,.938-1.1,1.752,1.752,0,0,1,.953-.266A2.787,2.787,0,0,1,53.6,3.93l-.68,1.914a1.927,1.927,0,0,0-1.031-.359,1.206,1.206,0,0,0-.781.258,1.73,1.73,0,0,0-.508.914,13.317,13.317,0,0,0-.18,2.781Z" transform="translate(901 628.173)"/>
    <rect id="Rectangle_38" data-name="Rectangle 38" class="cls-4" width="838" height="42.498" rx="9.5" transform="translate(100.5 535.152)"/>
    <path id="Path_29" data-name="Path 29" class="cls-5" d="M1.025,11V.979h3.76a4.582,4.582,0,0,1,1.839.308,2.321,2.321,0,0,1,1.087.937,2.437,2.437,0,0,1,.4,1.319,2.272,2.272,0,0,1-.349,1.21,2.489,2.489,0,0,1-1.053.916A2.6,2.6,0,0,1,8.1,6.577a2.424,2.424,0,0,1,.492,1.518,2.921,2.921,0,0,1-.3,1.313,2.51,2.51,0,0,1-.731.93,3.107,3.107,0,0,1-1.1.5A6.761,6.761,0,0,1,4.847,11ZM2.352,5.189H4.519a4.835,4.835,0,0,0,1.265-.116,1.388,1.388,0,0,0,.759-.5A1.424,1.424,0,0,0,6.8,3.7a1.594,1.594,0,0,0-.239-.875,1.192,1.192,0,0,0-.684-.52,5.578,5.578,0,0,0-1.524-.144h-2Zm0,4.628h2.5a5.743,5.743,0,0,0,.9-.048A2.162,2.162,0,0,0,6.515,9.5a1.458,1.458,0,0,0,.506-.554,1.764,1.764,0,0,0,.2-.848,1.65,1.65,0,0,0-.287-.971,1.491,1.491,0,0,0-.8-.581,4.809,4.809,0,0,0-1.463-.171H2.352ZM15.019,11V9.934a2.657,2.657,0,0,1-2.3,1.231,2.961,2.961,0,0,1-1.2-.246,2.021,2.021,0,0,1-.827-.615,2.379,2.379,0,0,1-.376-.916,6.251,6.251,0,0,1-.075-1.148V3.74h1.23V7.767a7.168,7.168,0,0,0,.075,1.3,1.3,1.3,0,0,0,.492.766,1.539,1.539,0,0,0,.93.273A2.044,2.044,0,0,0,14,9.824a1.579,1.579,0,0,0,.684-.772,3.846,3.846,0,0,0,.205-1.422V3.74h1.23V11Zm2.543-2.167,1.217-.191a1.708,1.708,0,0,0,.567,1.121,2,2,0,0,0,1.313.39,1.937,1.937,0,0,0,1.258-.342A1.042,1.042,0,0,0,22.326,9a.747.747,0,0,0-.362-.656,5.339,5.339,0,0,0-1.258-.417,11.953,11.953,0,0,1-1.88-.588,1.87,1.87,0,0,1-.841-2.563,2.014,2.014,0,0,1,.608-.69,2.488,2.488,0,0,1,.779-.355,3.678,3.678,0,0,1,1.067-.15,4.173,4.173,0,0,1,1.5.246,2.029,2.029,0,0,1,.957.67,2.579,2.579,0,0,1,.424,1.121l-1.2.164a1.31,1.31,0,0,0-.479-.875,1.723,1.723,0,0,0-1.107-.314,2.011,2.011,0,0,0-1.21.28.816.816,0,0,0-.362.656.68.68,0,0,0,.15.431,1.085,1.085,0,0,0,.472.328q.185.068,1.087.314a14.335,14.335,0,0,1,1.818.574,1.823,1.823,0,0,1,.813.643,1.8,1.8,0,0,1,.294,1.053,2.068,2.068,0,0,1-.362,1.162,2.327,2.327,0,0,1-1.032.841,3.807,3.807,0,0,1-1.531.294,3.426,3.426,0,0,1-2.16-.588A2.741,2.741,0,0,1,17.562,8.833Zm12.229-.492L31,8.5a3.146,3.146,0,0,1-1.019,1.962,2.953,2.953,0,0,1-2,.7,3.133,3.133,0,0,1-2.4-.971,3.975,3.975,0,0,1-.9-2.8,5.053,5.053,0,0,1,.39-2.058A2.7,2.7,0,0,1,26.25,4.021a3.517,3.517,0,0,1,1.736-.444,3,3,0,0,1,1.935.6,2.728,2.728,0,0,1,.964,1.7l-1.2.185a1.977,1.977,0,0,0-.608-1.1,1.552,1.552,0,0,0-1.046-.369,1.906,1.906,0,0,0-1.511.67,3.15,3.15,0,0,0-.581,2.105,3.271,3.271,0,0,0,.56,2.126,1.824,1.824,0,0,0,1.463.663,1.724,1.724,0,0,0,1.21-.444A2.206,2.206,0,0,0,29.791,8.341Zm7,1.764a4.563,4.563,0,0,1-1.319.82,3.775,3.775,0,0,1-1.354.239,2.649,2.649,0,0,1-1.839-.581,1.94,1.94,0,0,1-.643-1.5,1.99,1.99,0,0,1,.239-.971,2.044,2.044,0,0,1,.636-.711A3.036,3.036,0,0,1,33.4,7a8.789,8.789,0,0,1,1.094-.185,11.248,11.248,0,0,0,2.194-.424q.007-.253.007-.321a1.359,1.359,0,0,0-.349-1.06,2.059,2.059,0,0,0-1.4-.417A2.171,2.171,0,0,0,33.66,4.9a1.85,1.85,0,0,0-.608,1.073l-1.2-.164a2.953,2.953,0,0,1,.54-1.244,2.332,2.332,0,0,1,1.087-.731,4.789,4.789,0,0,1,1.647-.26,4.361,4.361,0,0,1,1.511.219,1.973,1.973,0,0,1,.854.554,1.909,1.909,0,0,1,.383.834,6.931,6.931,0,0,1,.061,1.135V7.958a18.3,18.3,0,0,0,.075,2.174,2.8,2.8,0,0,0,.314.868H37.037A2.61,2.61,0,0,1,36.791,10.1Zm-.1-2.748a9.029,9.029,0,0,1-2.01.465,4.649,4.649,0,0,0-1.073.246,1.062,1.062,0,0,0-.485.4,1.034,1.034,0,0,0-.171.581,1.052,1.052,0,0,0,.369.82,1.617,1.617,0,0,0,1.094.328,2.56,2.56,0,0,0,1.265-.308,1.934,1.934,0,0,0,.813-.854,2.972,2.972,0,0,0,.2-1.23ZM39.833,11V3.74H40.94v1.1a3.033,3.033,0,0,1,.779-1.019,1.382,1.382,0,0,1,.793-.246,2.4,2.4,0,0,1,1.265.4l-.424,1.142a1.76,1.76,0,0,0-.9-.267,1.161,1.161,0,0,0-.725.246,1.3,1.3,0,0,0-.458.67A4.79,4.79,0,0,0,41.063,7.2V11ZM51.092,9.9l.178,1.087a4.565,4.565,0,0,1-.93.109,2.1,2.1,0,0,1-1.039-.212,1.191,1.191,0,0,1-.52-.554,4.443,4.443,0,0,1-.15-1.456V4.7h-.9V3.74h.9v-1.8L49.854,1.2V3.74h1.237V4.7H49.854V8.942a2.259,2.259,0,0,0,.062.677.538.538,0,0,0,.212.239.839.839,0,0,0,.424.089A4,4,0,0,0,51.092,9.9ZM57.06,11V9.934a2.657,2.657,0,0,1-2.3,1.231,2.961,2.961,0,0,1-1.2-.246,2.021,2.021,0,0,1-.827-.615,2.38,2.38,0,0,1-.376-.916,6.251,6.251,0,0,1-.075-1.148V3.74H53.5V7.767a7.168,7.168,0,0,0,.075,1.3,1.3,1.3,0,0,0,.492.766A1.538,1.538,0,0,0,55,10.1a2.044,2.044,0,0,0,1.039-.28,1.579,1.579,0,0,0,.684-.772A3.846,3.846,0,0,0,56.93,7.63V3.74h1.23V11Zm5.722-1.1.178,1.087a4.566,4.566,0,0,1-.93.109,2.1,2.1,0,0,1-1.039-.212,1.191,1.191,0,0,1-.52-.554,4.439,4.439,0,0,1-.15-1.456V4.7h-.9V3.74h.9v-1.8L61.544,1.2V3.74h1.237V4.7H61.544V8.942a2.258,2.258,0,0,0,.062.677.538.538,0,0,0,.212.239.838.838,0,0,0,.424.089A4,4,0,0,0,62.781,9.9Zm.752-2.529a3.742,3.742,0,0,1,1.121-2.987,3.378,3.378,0,0,1,2.283-.807,3.252,3.252,0,0,1,2.447.984,3.72,3.72,0,0,1,.95,2.707,4.791,4.791,0,0,1-.424,2.208,2.954,2.954,0,0,1-1.224,1.244,3.542,3.542,0,0,1-1.75.444,3.274,3.274,0,0,1-2.468-.978A3.914,3.914,0,0,1,63.533,7.37Zm1.265,0a3.107,3.107,0,0,0,.608,2.092,2.029,2.029,0,0,0,3.056-.007,3.165,3.165,0,0,0,.608-2.126,2.975,2.975,0,0,0-.615-2.037,1.932,1.932,0,0,0-1.518-.7,1.954,1.954,0,0,0-1.531.69A3.079,3.079,0,0,0,64.8,7.37ZM71.771,11V3.74h1.107v1.1a3.033,3.033,0,0,1,.779-1.019,1.382,1.382,0,0,1,.793-.246,2.4,2.4,0,0,1,1.265.4l-.424,1.142a1.76,1.76,0,0,0-.9-.267,1.161,1.161,0,0,0-.725.246,1.3,1.3,0,0,0-.458.67A4.79,4.79,0,0,0,73,7.2V11Zm4.245,0V9.6h1.4V11Zm3.9,0V9.6h1.4V11Zm3.9,0V9.6h1.4V11Z" transform="translate(115 548.789)"/>
    <path id="Path_30" data-name="Path 30" class="cls-3" d="M18,8.453v2.669a1.285,1.285,0,0,1-1.227,1.335H11.455V18.24a1.285,1.285,0,0,1-1.227,1.335H7.773A1.285,1.285,0,0,1,6.545,18.24V12.456H1.227A1.285,1.285,0,0,1,0,11.122V8.453A1.285,1.285,0,0,1,1.227,7.118H6.545V1.335A1.285,1.285,0,0,1,7.773,0h2.455a1.285,1.285,0,0,1,1.227,1.335V7.118h5.318A1.285,1.285,0,0,1,18,8.453Z" transform="translate(952 546.614)"/>
    <path id="Path_31" data-name="Path 31" class="cls-3" d="M1.852,16V-1.18h6.48a15.645,15.645,0,0,1,2.613.164,5.126,5.126,0,0,1,2.121.809,4.122,4.122,0,0,1,1.371,1.652,5.214,5.214,0,0,1,.527,2.344A5.3,5.3,0,0,1,13.57,7.5Q12.176,9.016,8.531,9.016H4.125V16ZM4.125,6.988H8.566a4.71,4.71,0,0,0,3.129-.82,2.923,2.923,0,0,0,.926-2.309,3.055,3.055,0,0,0-.551-1.84A2.513,2.513,0,0,0,10.641,1,9.713,9.713,0,0,0,8.52.848H4.125ZM17.566,16V3.555h1.9V5.441A5.2,5.2,0,0,1,20.8,3.7a2.369,2.369,0,0,1,1.359-.422,4.114,4.114,0,0,1,2.168.68L23.6,5.91a3.018,3.018,0,0,0-1.547-.457,1.991,1.991,0,0,0-1.242.422,2.222,2.222,0,0,0-.785,1.148,8.219,8.219,0,0,0-.351,2.461V16ZM24.8,9.777a6.415,6.415,0,0,1,1.922-5.121,5.791,5.791,0,0,1,3.914-1.383,5.574,5.574,0,0,1,4.2,1.688A6.377,6.377,0,0,1,36.457,9.6a8.215,8.215,0,0,1-.727,3.785,5.065,5.065,0,0,1-2.1,2.133,6.074,6.074,0,0,1-3,.762,5.613,5.613,0,0,1-4.23-1.676A6.709,6.709,0,0,1,24.8,9.777Zm2.168,0a5.325,5.325,0,0,0,1.043,3.586,3.478,3.478,0,0,0,5.238-.012,5.427,5.427,0,0,0,1.043-3.645,5.1,5.1,0,0,0-1.055-3.492,3.312,3.312,0,0,0-2.6-1.2A3.35,3.35,0,0,0,28.008,6.2,5.277,5.277,0,0,0,26.965,9.777ZM38.941,16V3.555h1.9v1.77A4.474,4.474,0,0,1,44.8,3.273a5.09,5.09,0,0,1,2.063.41,3.211,3.211,0,0,1,1.418,1.055A4.069,4.069,0,0,1,48.938,6.3a12.081,12.081,0,0,1,.117,2.051V16H46.945V8.43A5.628,5.628,0,0,0,46.7,6.508a1.99,1.99,0,0,0-.879-1.02A2.714,2.714,0,0,0,44.355,5.1a3.44,3.44,0,0,0-2.332.855q-.973.855-.973,3.246V16Zm17.965-1.887.3,1.863a7.824,7.824,0,0,1-1.594.188,3.608,3.608,0,0,1-1.781-.363,2.041,2.041,0,0,1-.891-.949,7.612,7.612,0,0,1-.258-2.5V5.2H51.141V3.555h1.547V.473l2.1-1.266V3.555h2.121V5.2H54.785v7.277a3.872,3.872,0,0,0,.105,1.16.923.923,0,0,0,.363.41,1.438,1.438,0,0,0,.727.152A6.859,6.859,0,0,0,56.906,14.113ZM67.137,16V14.172a4.555,4.555,0,0,1-3.949,2.109,5.074,5.074,0,0,1-2.062-.422A3.464,3.464,0,0,1,59.707,14.8a4.081,4.081,0,0,1-.645-1.57,10.715,10.715,0,0,1-.129-1.969V3.555h2.109v6.9a12.294,12.294,0,0,0,.129,2.227A2.225,2.225,0,0,0,62.016,14a2.637,2.637,0,0,0,1.594.469,3.5,3.5,0,0,0,1.781-.48,2.707,2.707,0,0,0,1.172-1.324,6.591,6.591,0,0,0,.352-2.437V3.555h2.109V16Zm13.324-1.535A7.822,7.822,0,0,1,78.2,15.871a6.472,6.472,0,0,1-2.32.41,4.542,4.542,0,0,1-3.152-1,3.325,3.325,0,0,1-1.1-2.566,3.41,3.41,0,0,1,.41-1.664,3.5,3.5,0,0,1,1.09-1.219,5.2,5.2,0,0,1,1.523-.691,15.078,15.078,0,0,1,1.875-.316A19.28,19.28,0,0,0,80.285,8.1q.012-.434.012-.551a2.329,2.329,0,0,0-.6-1.816,3.53,3.53,0,0,0-2.4-.715,3.721,3.721,0,0,0-2.2.527,3.172,3.172,0,0,0-1.043,1.84l-2.062-.281a5.062,5.062,0,0,1,.926-2.133,4,4,0,0,1,1.863-1.254A8.211,8.211,0,0,1,77.6,3.273a7.475,7.475,0,0,1,2.59.375,3.382,3.382,0,0,1,1.465.949,3.272,3.272,0,0,1,.656,1.43,11.878,11.878,0,0,1,.105,1.945v2.813a31.356,31.356,0,0,0,.129,3.726A4.807,4.807,0,0,0,83.086,16h-2.2A4.473,4.473,0,0,1,80.461,14.465Zm-.176-4.711a15.481,15.481,0,0,1-3.445.8,7.967,7.967,0,0,0-1.84.422,1.821,1.821,0,0,0-.832.691,1.773,1.773,0,0,0-.293,1,1.8,1.8,0,0,0,.633,1.406,2.772,2.772,0,0,0,1.875.563,4.389,4.389,0,0,0,2.168-.527,3.317,3.317,0,0,0,1.395-1.465,5.1,5.1,0,0,0,.34-2.109Zm-4.1-7.746,1.559-3.281h2.766L77.93,2.008ZM85.676,16V3.555h1.9V5.441A5.2,5.2,0,0,1,88.91,3.7a2.369,2.369,0,0,1,1.359-.422,4.114,4.114,0,0,1,2.168.68L91.711,5.91a3.018,3.018,0,0,0-1.547-.457,1.991,1.991,0,0,0-1.242.422,2.222,2.222,0,0,0-.785,1.148,8.215,8.215,0,0,0-.352,2.461V16ZM93.7,1.246V-1.18h2.109V1.246ZM93.7,16V3.555h2.109V16ZM98.25,9.777a6.414,6.414,0,0,1,1.922-5.121,5.79,5.79,0,0,1,3.914-1.383,5.573,5.573,0,0,1,4.195,1.688A6.377,6.377,0,0,1,109.91,9.6a8.219,8.219,0,0,1-.726,3.785,5.067,5.067,0,0,1-2.1,2.133,6.074,6.074,0,0,1-3,.762,5.614,5.614,0,0,1-4.23-1.676A6.709,6.709,0,0,1,98.25,9.777Zm2.168,0a5.327,5.327,0,0,0,1.043,3.586,3.478,3.478,0,0,0,5.238-.012,5.423,5.423,0,0,0,1.043-3.645,5.1,5.1,0,0,0-1.054-3.492,3.314,3.314,0,0,0-2.6-1.2A3.349,3.349,0,0,0,101.461,6.2,5.279,5.279,0,0,0,100.418,9.777Z" transform="translate(471 253)"/>
    <rect id="Rectangle_39" data-name="Rectangle 39" class="cls-4" width="514" height="280.652" rx="9.5" transform="translate(456.5 220.876)"/>
    <path id="Path_32" data-name="Path 32" class="cls-3" d="M4.148,11V.9H.375V-.453H9.453V.9H5.664V11ZM15.68,11V9.781a3.037,3.037,0,0,1-2.633,1.406,3.381,3.381,0,0,1-1.375-.281,2.307,2.307,0,0,1-.945-.7,2.719,2.719,0,0,1-.43-1.047,7.139,7.139,0,0,1-.086-1.312V2.7h1.406V7.3A8.2,8.2,0,0,0,11.7,8.789a1.484,1.484,0,0,0,.563.875,1.758,1.758,0,0,0,1.063.313,2.336,2.336,0,0,0,1.188-.32,1.8,1.8,0,0,0,.781-.883,4.4,4.4,0,0,0,.234-1.625V2.7h1.406V11Zm6.539-1.258.2,1.242a5.219,5.219,0,0,1-1.062.125,2.406,2.406,0,0,1-1.187-.242,1.36,1.36,0,0,1-.594-.633,5.074,5.074,0,0,1-.172-1.664V3.8H18.375V2.7h1.031V.648L20.8-.2V2.7h1.414V3.8H20.8V8.648a2.58,2.58,0,0,0,.07.773.615.615,0,0,0,.242.273.958.958,0,0,0,.484.1A4.576,4.576,0,0,0,22.219,9.742Zm.859-2.891a4.276,4.276,0,0,1,1.281-3.414,3.861,3.861,0,0,1,2.609-.922,3.716,3.716,0,0,1,2.8,1.125,4.251,4.251,0,0,1,1.086,3.094,5.476,5.476,0,0,1-.484,2.523,3.377,3.377,0,0,1-1.4,1.422,4.05,4.05,0,0,1-2,.508,3.742,3.742,0,0,1-2.82-1.117A4.473,4.473,0,0,1,23.078,6.852Zm1.445,0a3.55,3.55,0,0,0,.7,2.391,2.319,2.319,0,0,0,3.492-.008,3.617,3.617,0,0,0,.7-2.43,3.4,3.4,0,0,0-.7-2.328,2.208,2.208,0,0,0-1.734-.8,2.233,2.233,0,0,0-1.75.789A3.518,3.518,0,0,0,24.523,6.852ZM32.492,11V2.7h1.266V3.961A3.466,3.466,0,0,1,34.648,2.8a1.58,1.58,0,0,1,.906-.281A2.743,2.743,0,0,1,37,2.969l-.484,1.3a2.012,2.012,0,0,0-1.031-.3,1.327,1.327,0,0,0-.828.281,1.482,1.482,0,0,0-.523.766A5.479,5.479,0,0,0,33.9,6.656V11Zm5.734-6.7V2.7h1.6V4.3Zm0,6.7V9.4h1.6V11Z" transform="translate(100 220.376)"/>
    <path id="Path_33" data-name="Path 33" class="cls-3" d="M1.234,11V-.453H5.18a9.57,9.57,0,0,1,2.039.164A3.879,3.879,0,0,1,8.9.531,4.626,4.626,0,0,1,10.25,2.492,7.59,7.59,0,0,1,10.7,5.211a8,8,0,0,1-.3,2.313A5.666,5.666,0,0,1,9.617,9.2,4.208,4.208,0,0,1,8.57,10.234,4.256,4.256,0,0,1,7.2,10.8a7.753,7.753,0,0,1-1.836.2ZM2.75,9.648H5.2a5.894,5.894,0,0,0,1.773-.211A2.541,2.541,0,0,0,8,8.844,3.58,3.58,0,0,0,8.836,7.4a7.038,7.038,0,0,0,.3-2.211A5.279,5.279,0,0,0,8.547,2.43a2.947,2.947,0,0,0-1.43-1.3A5.926,5.926,0,0,0,5.156.9H2.75Zm15.281.328a5.215,5.215,0,0,1-1.508.938,4.313,4.313,0,0,1-1.547.273,3.028,3.028,0,0,1-2.1-.664,2.217,2.217,0,0,1-.734-1.711A2.274,2.274,0,0,1,12.414,7.7a2.337,2.337,0,0,1,.727-.812,3.47,3.47,0,0,1,1.016-.461,10.053,10.053,0,0,1,1.25-.211,12.854,12.854,0,0,0,2.508-.484q.008-.289.008-.367a1.552,1.552,0,0,0-.4-1.211,2.353,2.353,0,0,0-1.6-.477,2.481,2.481,0,0,0-1.469.352,2.115,2.115,0,0,0-.7,1.227L12.383,5.07A3.374,3.374,0,0,1,13,3.648a2.666,2.666,0,0,1,1.242-.836,5.474,5.474,0,0,1,1.883-.3,4.984,4.984,0,0,1,1.727.25,2.255,2.255,0,0,1,.976.633,2.181,2.181,0,0,1,.438.953,7.916,7.916,0,0,1,.07,1.3V7.523a20.906,20.906,0,0,0,.086,2.484,3.206,3.206,0,0,0,.359.992H18.313A2.983,2.983,0,0,1,18.031,9.977Zm-.117-3.141a10.32,10.32,0,0,1-2.3.531,5.313,5.313,0,0,0-1.227.281,1.214,1.214,0,0,0-.555.461,1.182,1.182,0,0,0-.2.664,1.2,1.2,0,0,0,.422.938,1.848,1.848,0,0,0,1.25.375,2.926,2.926,0,0,0,1.445-.352,2.211,2.211,0,0,0,.93-.977,3.4,3.4,0,0,0,.227-1.406Zm6.68,2.906.2,1.242a5.219,5.219,0,0,1-1.062.125,2.406,2.406,0,0,1-1.187-.242,1.36,1.36,0,0,1-.594-.633,5.074,5.074,0,0,1-.172-1.664V3.8H20.75V2.7h1.031V.648L23.18-.2V2.7h1.414V3.8H23.18V8.648a2.58,2.58,0,0,0,.07.773.615.615,0,0,0,.242.273.958.958,0,0,0,.484.1A4.576,4.576,0,0,0,24.594,9.742Zm6.8.234a5.215,5.215,0,0,1-1.508.938,4.314,4.314,0,0,1-1.547.273,3.028,3.028,0,0,1-2.1-.664A2.217,2.217,0,0,1,25.5,8.813,2.274,2.274,0,0,1,25.773,7.7a2.336,2.336,0,0,1,.727-.812,3.47,3.47,0,0,1,1.016-.461,10.05,10.05,0,0,1,1.25-.211,12.853,12.853,0,0,0,2.508-.484q.008-.289.008-.367a1.553,1.553,0,0,0-.4-1.211,2.353,2.353,0,0,0-1.6-.477,2.481,2.481,0,0,0-1.469.352,2.115,2.115,0,0,0-.7,1.227L25.742,5.07a3.374,3.374,0,0,1,.617-1.422A2.666,2.666,0,0,1,27.6,2.813a5.473,5.473,0,0,1,1.883-.3,4.983,4.983,0,0,1,1.726.25,2.255,2.255,0,0,1,.977.633,2.182,2.182,0,0,1,.438.953,7.915,7.915,0,0,1,.07,1.3V7.523a20.938,20.938,0,0,0,.086,2.484,3.207,3.207,0,0,0,.359.992H31.672A2.981,2.981,0,0,1,31.391,9.977Zm-.117-3.141a10.317,10.317,0,0,1-2.3.531,5.312,5.312,0,0,0-1.227.281,1.214,1.214,0,0,0-.555.461,1.182,1.182,0,0,0-.2.664,1.2,1.2,0,0,0,.422.938,1.847,1.847,0,0,0,1.25.375,2.926,2.926,0,0,0,1.445-.352,2.211,2.211,0,0,0,.93-.977,3.4,3.4,0,0,0,.226-1.406ZM44.75,7.961l1.383.18a3.594,3.594,0,0,1-1.164,2.242,3.375,3.375,0,0,1-2.289.8,3.581,3.581,0,0,1-2.742-1.109,4.543,4.543,0,0,1-1.031-3.2,5.775,5.775,0,0,1,.445-2.352A3.089,3.089,0,0,1,40.7,3.023a4.019,4.019,0,0,1,1.984-.508A3.429,3.429,0,0,1,44.9,3.2,3.118,3.118,0,0,1,46,5.141l-1.367.211a2.258,2.258,0,0,0-.7-1.258,1.774,1.774,0,0,0-1.2-.422,2.178,2.178,0,0,0-1.727.766,3.6,3.6,0,0,0-.664,2.406,3.738,3.738,0,0,0,.641,2.43,2.085,2.085,0,0,0,1.672.758,1.971,1.971,0,0,0,1.383-.508A2.52,2.52,0,0,0,44.75,7.961Zm8,2.016a5.215,5.215,0,0,1-1.508.938,4.314,4.314,0,0,1-1.547.273,3.028,3.028,0,0,1-2.1-.664,2.217,2.217,0,0,1-.734-1.711A2.274,2.274,0,0,1,47.133,7.7a2.336,2.336,0,0,1,.727-.812,3.47,3.47,0,0,1,1.016-.461,10.046,10.046,0,0,1,1.25-.211,12.853,12.853,0,0,0,2.508-.484q.008-.289.008-.367a1.553,1.553,0,0,0-.4-1.211,2.353,2.353,0,0,0-1.6-.477,2.481,2.481,0,0,0-1.469.352,2.115,2.115,0,0,0-.7,1.227L47.1,5.07a3.374,3.374,0,0,1,.617-1.422,2.666,2.666,0,0,1,1.242-.836,5.474,5.474,0,0,1,1.883-.3,4.983,4.983,0,0,1,1.727.25,2.256,2.256,0,0,1,.977.633,2.183,2.183,0,0,1,.438.953,7.927,7.927,0,0,1,.07,1.3V7.523a20.916,20.916,0,0,0,.086,2.484A3.2,3.2,0,0,0,54.5,11H53.031A2.983,2.983,0,0,1,52.75,9.977Zm-.117-3.141a10.317,10.317,0,0,1-2.3.531,5.312,5.312,0,0,0-1.226.281,1.214,1.214,0,0,0-.555.461,1.182,1.182,0,0,0-.2.664,1.2,1.2,0,0,0,.422.938,1.848,1.848,0,0,0,1.25.375,2.926,2.926,0,0,0,1.445-.352,2.211,2.211,0,0,0,.93-.977,3.4,3.4,0,0,0,.227-1.406ZM61.625,11V9.953a2.581,2.581,0,0,1-2.32,1.234,3.272,3.272,0,0,1-1.828-.547,3.637,3.637,0,0,1-1.289-1.523,5.344,5.344,0,0,1-.453-2.258,5.87,5.87,0,0,1,.414-2.25,3.264,3.264,0,0,1,1.242-1.555,3.321,3.321,0,0,1,1.852-.539,2.794,2.794,0,0,1,2.289,1.141V-.453h1.4V11ZM57.18,6.859a3.6,3.6,0,0,0,.672,2.383,2.026,2.026,0,0,0,1.586.789A1.981,1.981,0,0,0,61,9.281a3.477,3.477,0,0,0,.648-2.3,3.9,3.9,0,0,0-.656-2.5,2.019,2.019,0,0,0-1.617-.8,1.959,1.959,0,0,0-1.57.766A3.8,3.8,0,0,0,57.18,6.859ZM70.563,9.977a5.215,5.215,0,0,1-1.508.938,4.314,4.314,0,0,1-1.547.273,3.028,3.028,0,0,1-2.1-.664,2.217,2.217,0,0,1-.734-1.711A2.274,2.274,0,0,1,64.945,7.7a2.336,2.336,0,0,1,.727-.812,3.47,3.47,0,0,1,1.016-.461,10.047,10.047,0,0,1,1.25-.211,12.853,12.853,0,0,0,2.508-.484q.008-.289.008-.367a1.553,1.553,0,0,0-.4-1.211,2.353,2.353,0,0,0-1.6-.477,2.481,2.481,0,0,0-1.469.352,2.115,2.115,0,0,0-.7,1.227L64.914,5.07a3.375,3.375,0,0,1,.617-1.422,2.667,2.667,0,0,1,1.242-.836,5.474,5.474,0,0,1,1.883-.3,4.983,4.983,0,0,1,1.727.25,2.256,2.256,0,0,1,.977.633,2.183,2.183,0,0,1,.438.953,7.915,7.915,0,0,1,.07,1.3V7.523a20.914,20.914,0,0,0,.086,2.484,3.2,3.2,0,0,0,.359.992H70.844A2.981,2.981,0,0,1,70.563,9.977Zm-.117-3.141a10.317,10.317,0,0,1-2.3.531,5.312,5.312,0,0,0-1.227.281,1.214,1.214,0,0,0-.555.461,1.182,1.182,0,0,0-.2.664,1.2,1.2,0,0,0,.422.938,1.847,1.847,0,0,0,1.25.375,2.926,2.926,0,0,0,1.445-.352,2.212,2.212,0,0,0,.93-.977,3.4,3.4,0,0,0,.226-1.406Zm3.047,1.688L74.883,8.3a1.952,1.952,0,0,0,.648,1.281,2.29,2.29,0,0,0,1.5.445,2.214,2.214,0,0,0,1.438-.391,1.191,1.191,0,0,0,.469-.93.854.854,0,0,0-.414-.75,6.1,6.1,0,0,0-1.437-.477,13.662,13.662,0,0,1-2.148-.672,2.142,2.142,0,0,1-.906-.789,2.21,2.21,0,0,1-.055-2.141,2.3,2.3,0,0,1,.7-.789,2.843,2.843,0,0,1,.891-.406,4.2,4.2,0,0,1,1.219-.172,4.77,4.77,0,0,1,1.711.281,2.318,2.318,0,0,1,1.094.766,2.945,2.945,0,0,1,.484,1.281L78.7,5.031a1.5,1.5,0,0,0-.547-1,1.969,1.969,0,0,0-1.266-.359,2.3,2.3,0,0,0-1.383.32.933.933,0,0,0-.414.75.776.776,0,0,0,.172.492,1.24,1.24,0,0,0,.539.375q.211.078,1.242.359a16.385,16.385,0,0,1,2.078.656,2.084,2.084,0,0,1,.93.734,2.061,2.061,0,0,1,.336,1.2,2.364,2.364,0,0,1-.414,1.328,2.66,2.66,0,0,1-1.18.961,4.353,4.353,0,0,1-1.75.336,3.916,3.916,0,0,1-2.469-.672A3.132,3.132,0,0,1,73.492,8.523ZM85.125,9.742l.2,1.242a5.218,5.218,0,0,1-1.062.125,2.406,2.406,0,0,1-1.187-.242,1.361,1.361,0,0,1-.594-.633,5.074,5.074,0,0,1-.172-1.664V3.8H81.281V2.7h1.031V.648l1.4-.844V2.7h1.414V3.8H83.711V8.648a2.583,2.583,0,0,0,.07.773.616.616,0,0,0,.242.273.958.958,0,0,0,.484.1A4.574,4.574,0,0,0,85.125,9.742ZM86.492,11V2.7h1.266V3.961A3.466,3.466,0,0,1,88.648,2.8a1.58,1.58,0,0,1,.906-.281A2.743,2.743,0,0,1,91,2.969l-.484,1.3a2.012,2.012,0,0,0-1.031-.3,1.327,1.327,0,0,0-.828.281,1.482,1.482,0,0,0-.523.766A5.479,5.479,0,0,0,87.9,6.656V11Zm4.82-4.148a4.276,4.276,0,0,1,1.281-3.414A3.861,3.861,0,0,1,95.2,2.516,3.716,3.716,0,0,1,98,3.641a4.251,4.251,0,0,1,1.086,3.094A5.476,5.476,0,0,1,98.6,9.258a3.377,3.377,0,0,1-1.4,1.422,4.05,4.05,0,0,1-2,.508,3.742,3.742,0,0,1-2.82-1.117A4.473,4.473,0,0,1,91.313,6.852Zm1.445,0a3.55,3.55,0,0,0,.7,2.391,2.319,2.319,0,0,0,3.492-.008,3.617,3.617,0,0,0,.7-2.43,3.4,3.4,0,0,0-.7-2.328,2.208,2.208,0,0,0-1.734-.8,2.234,2.234,0,0,0-1.75.789A3.518,3.518,0,0,0,92.758,6.852ZM101.133,4.3V2.7h1.6V4.3Zm0,6.7V9.4h1.6V11Z" transform="translate(100 254.087)"/>
    <path id="Path_34" data-name="Path 34" class="cls-3" d="M1.219,11V-.453H2.773L8.789,8.539V-.453h1.453V11H8.688L2.672,2v9ZM12.094,6.852a4.276,4.276,0,0,1,1.281-3.414,3.861,3.861,0,0,1,2.609-.922,3.716,3.716,0,0,1,2.8,1.125,4.251,4.251,0,0,1,1.086,3.094,5.476,5.476,0,0,1-.484,2.523,3.377,3.377,0,0,1-1.4,1.422,4.05,4.05,0,0,1-2,.508,3.742,3.742,0,0,1-2.82-1.117A4.472,4.472,0,0,1,12.094,6.852Zm1.445,0a3.55,3.55,0,0,0,.7,2.391,2.319,2.319,0,0,0,3.492-.008,3.618,3.618,0,0,0,.7-2.43,3.4,3.4,0,0,0-.7-2.328,2.208,2.208,0,0,0-1.734-.8,2.233,2.233,0,0,0-1.75.789A3.518,3.518,0,0,0,13.539,6.852ZM21.523,11V2.7h1.258V3.867A2.948,2.948,0,0,1,25.3,2.516,2.709,2.709,0,0,1,26.8,2.9a2.043,2.043,0,0,1,.836,1.07A2.979,2.979,0,0,1,30.2,2.516a2.518,2.518,0,0,1,1.9.688,2.907,2.907,0,0,1,.664,2.1V11h-1.4V5.773a3.711,3.711,0,0,0-.141-1.211,1.155,1.155,0,0,0-.492-.6,1.549,1.549,0,0,0-.844-.227,1.957,1.957,0,0,0-1.453.586,2.549,2.549,0,0,0-.578,1.859V11H26.453V5.609A2.372,2.372,0,0,0,26.109,4.2a1.3,1.3,0,0,0-1.125-.469,2.063,2.063,0,0,0-1.1.312,1.779,1.779,0,0,0-.727.914A5.147,5.147,0,0,0,22.93,6.7V11ZM40.531,8.328l1.453.18a3.546,3.546,0,0,1-1.274,1.977,4.326,4.326,0,0,1-5.266-.414,4.4,4.4,0,0,1-1.062-3.148,4.585,4.585,0,0,1,1.078-3.25,3.65,3.65,0,0,1,2.8-1.156,3.547,3.547,0,0,1,2.719,1.133,4.5,4.5,0,0,1,1.055,3.188q0,.125-.008.375H35.836A3.188,3.188,0,0,0,36.609,9.3a2.3,2.3,0,0,0,1.734.727,2.152,2.152,0,0,0,1.32-.406A2.7,2.7,0,0,0,40.531,8.328ZM35.914,6.055h4.633a2.81,2.81,0,0,0-.531-1.57,2.155,2.155,0,0,0-1.742-.812,2.247,2.247,0,0,0-1.633.648A2.575,2.575,0,0,0,35.914,6.055ZM44.148,4.3V2.7h1.6V4.3Zm0,6.7V9.4h1.6V11Z" transform="translate(100 287.799)"/>
    <path id="Path_35" data-name="Path 35" class="cls-3" d="M1.219,11V-.453H2.773L8.789,8.539V-.453h1.453V11H8.688L2.672,2v9ZM18.031,9.977a5.215,5.215,0,0,1-1.508.938,4.313,4.313,0,0,1-1.547.273,3.028,3.028,0,0,1-2.1-.664,2.217,2.217,0,0,1-.734-1.711A2.274,2.274,0,0,1,12.414,7.7a2.337,2.337,0,0,1,.727-.812,3.47,3.47,0,0,1,1.016-.461,10.053,10.053,0,0,1,1.25-.211,12.854,12.854,0,0,0,2.508-.484q.008-.289.008-.367a1.552,1.552,0,0,0-.4-1.211,2.353,2.353,0,0,0-1.6-.477,2.481,2.481,0,0,0-1.469.352,2.115,2.115,0,0,0-.7,1.227L12.383,5.07A3.374,3.374,0,0,1,13,3.648a2.666,2.666,0,0,1,1.242-.836,5.474,5.474,0,0,1,1.883-.3,4.984,4.984,0,0,1,1.727.25,2.255,2.255,0,0,1,.976.633,2.181,2.181,0,0,1,.438.953,7.916,7.916,0,0,1,.07,1.3V7.523a20.906,20.906,0,0,0,.086,2.484,3.206,3.206,0,0,0,.359.992H18.313A2.983,2.983,0,0,1,18.031,9.977Zm-.117-3.141a10.32,10.32,0,0,1-2.3.531,5.313,5.313,0,0,0-1.227.281,1.214,1.214,0,0,0-.555.461,1.182,1.182,0,0,0-.2.664,1.2,1.2,0,0,0,.422.938,1.848,1.848,0,0,0,1.25.375,2.926,2.926,0,0,0,1.445-.352,2.211,2.211,0,0,0,.93-.977,3.4,3.4,0,0,0,.227-1.406Zm3.047,1.688L22.352,8.3A1.951,1.951,0,0,0,23,9.586a2.29,2.29,0,0,0,1.5.445,2.214,2.214,0,0,0,1.438-.391,1.191,1.191,0,0,0,.469-.93.854.854,0,0,0-.414-.75,6.1,6.1,0,0,0-1.437-.477,13.664,13.664,0,0,1-2.149-.672,2.141,2.141,0,0,1-.906-.789,2.21,2.21,0,0,1-.055-2.141,2.3,2.3,0,0,1,.7-.789,2.844,2.844,0,0,1,.891-.406,4.2,4.2,0,0,1,1.219-.172,4.77,4.77,0,0,1,1.711.281,2.319,2.319,0,0,1,1.094.766,2.946,2.946,0,0,1,.484,1.281l-1.375.188a1.5,1.5,0,0,0-.547-1,1.969,1.969,0,0,0-1.266-.359,2.3,2.3,0,0,0-1.383.32.932.932,0,0,0-.414.75.776.776,0,0,0,.172.492,1.239,1.239,0,0,0,.539.375q.211.078,1.242.359a16.384,16.384,0,0,1,2.078.656,2.083,2.083,0,0,1,.93.734,2.06,2.06,0,0,1,.336,1.2,2.364,2.364,0,0,1-.414,1.328,2.66,2.66,0,0,1-1.18.961,4.352,4.352,0,0,1-1.75.336,3.916,3.916,0,0,1-2.469-.672A3.133,3.133,0,0,1,20.961,8.523Zm13.977-.563,1.383.18a3.594,3.594,0,0,1-1.164,2.242,3.375,3.375,0,0,1-2.289.8,3.581,3.581,0,0,1-2.742-1.109,4.543,4.543,0,0,1-1.031-3.2,5.775,5.775,0,0,1,.445-2.352,3.089,3.089,0,0,1,1.351-1.508,4.019,4.019,0,0,1,1.984-.508,3.429,3.429,0,0,1,2.211.688,3.118,3.118,0,0,1,1.1,1.938l-1.367.211a2.258,2.258,0,0,0-.7-1.258,1.774,1.774,0,0,0-1.2-.422,2.178,2.178,0,0,0-1.727.766,3.6,3.6,0,0,0-.664,2.406,3.738,3.738,0,0,0,.641,2.43,2.085,2.085,0,0,0,1.672.758,1.971,1.971,0,0,0,1.383-.508A2.52,2.52,0,0,0,34.938,7.961Zm2.594-6.8V-.453h1.406V1.164Zm0,9.836V2.7h1.406V11Zm3.555,0V2.7h1.258V3.867a2.947,2.947,0,0,1,2.516-1.352,2.709,2.709,0,0,1,1.508.383,2.043,2.043,0,0,1,.836,1.07,2.979,2.979,0,0,1,2.563-1.453,2.518,2.518,0,0,1,1.9.688,2.907,2.907,0,0,1,.664,2.1V11h-1.4V5.773a3.711,3.711,0,0,0-.141-1.211,1.155,1.155,0,0,0-.492-.6,1.549,1.549,0,0,0-.844-.227A1.957,1.957,0,0,0,48,4.32a2.549,2.549,0,0,0-.578,1.859V11H46.016V5.609A2.372,2.372,0,0,0,45.672,4.2a1.3,1.3,0,0,0-1.125-.469,2.063,2.063,0,0,0-1.1.312,1.779,1.779,0,0,0-.727.914A5.144,5.144,0,0,0,42.492,6.7V11ZM60.094,8.328l1.453.18a3.546,3.546,0,0,1-1.274,1.977,4.326,4.326,0,0,1-5.266-.414,4.4,4.4,0,0,1-1.062-3.148,4.585,4.585,0,0,1,1.078-3.25,3.65,3.65,0,0,1,2.8-1.156,3.547,3.547,0,0,1,2.719,1.133,4.5,4.5,0,0,1,1.055,3.188q0,.125-.008.375H55.4A3.188,3.188,0,0,0,56.172,9.3a2.3,2.3,0,0,0,1.734.727,2.152,2.152,0,0,0,1.32-.406A2.7,2.7,0,0,0,60.094,8.328ZM55.477,6.055h4.633a2.81,2.81,0,0,0-.531-1.57,2.155,2.155,0,0,0-1.742-.812A2.247,2.247,0,0,0,56.2,4.32,2.575,2.575,0,0,0,55.477,6.055ZM63.32,11V2.7h1.266v1.18a2.983,2.983,0,0,1,2.641-1.367,3.394,3.394,0,0,1,1.375.273,2.142,2.142,0,0,1,.945.7,2.715,2.715,0,0,1,.438,1.039A8.051,8.051,0,0,1,70.063,5.9V11H68.656V5.953a3.752,3.752,0,0,0-.164-1.281,1.327,1.327,0,0,0-.586-.68,1.809,1.809,0,0,0-.976-.258,2.293,2.293,0,0,0-1.555.57,2.824,2.824,0,0,0-.648,2.164V11ZM75.3,9.742l.2,1.242a5.218,5.218,0,0,1-1.062.125,2.406,2.406,0,0,1-1.187-.242,1.361,1.361,0,0,1-.594-.633,5.078,5.078,0,0,1-.172-1.664V3.8H71.453V2.7h1.031V.648l1.4-.844V2.7H75.3V3.8H73.883V8.648a2.58,2.58,0,0,0,.07.773A.615.615,0,0,0,74.2,9.7a.958.958,0,0,0,.484.1A4.575,4.575,0,0,0,75.3,9.742Zm.859-2.891a4.276,4.276,0,0,1,1.281-3.414,3.861,3.861,0,0,1,2.609-.922,3.716,3.716,0,0,1,2.8,1.125A4.252,4.252,0,0,1,83.93,6.734a5.476,5.476,0,0,1-.484,2.523,3.377,3.377,0,0,1-1.4,1.422,4.05,4.05,0,0,1-2,.508,3.742,3.742,0,0,1-2.82-1.117A4.472,4.472,0,0,1,76.156,6.852Zm1.445,0a3.55,3.55,0,0,0,.7,2.391,2.319,2.319,0,0,0,3.492-.008,3.618,3.618,0,0,0,.7-2.43,3.4,3.4,0,0,0-.7-2.328,2.208,2.208,0,0,0-1.734-.8,2.233,2.233,0,0,0-1.75.789A3.518,3.518,0,0,0,77.6,6.852ZM85.977,4.3V2.7h1.6V4.3Zm0,6.7V9.4h1.6V11Z" transform="translate(100 321.51)"/>
    <path id="Path_36" data-name="Path 36" class="cls-3" d="M1.258,11V-.453H6.336a6.68,6.68,0,0,1,2.328.313A2.525,2.525,0,0,1,9.938.945a3.252,3.252,0,0,1,.477,1.727,2.881,2.881,0,0,1-.789,2.055A3.993,3.993,0,0,1,7.188,5.789a3.93,3.93,0,0,1,.914.57A7.875,7.875,0,0,1,9.359,7.883L11.352,11H9.445L7.93,8.617Q7.266,7.586,6.836,7.039a3.389,3.389,0,0,0-.773-.766,2.227,2.227,0,0,0-.687-.3,4.553,4.553,0,0,0-.844-.055H2.773V11ZM2.773,4.6H6.031a4.97,4.97,0,0,0,1.625-.211A1.756,1.756,0,0,0,8.547,3.7a1.879,1.879,0,0,0,.3-1.031,1.7,1.7,0,0,0-.594-1.336A2.744,2.744,0,0,0,6.4.813H2.773ZM18.031,9.977a5.215,5.215,0,0,1-1.508.938,4.313,4.313,0,0,1-1.547.273,3.028,3.028,0,0,1-2.1-.664,2.217,2.217,0,0,1-.734-1.711A2.274,2.274,0,0,1,12.414,7.7a2.337,2.337,0,0,1,.727-.812,3.47,3.47,0,0,1,1.016-.461,10.053,10.053,0,0,1,1.25-.211,12.854,12.854,0,0,0,2.508-.484q.008-.289.008-.367a1.552,1.552,0,0,0-.4-1.211,2.353,2.353,0,0,0-1.6-.477,2.481,2.481,0,0,0-1.469.352,2.115,2.115,0,0,0-.7,1.227L12.383,5.07A3.374,3.374,0,0,1,13,3.648a2.666,2.666,0,0,1,1.242-.836,5.474,5.474,0,0,1,1.883-.3,4.984,4.984,0,0,1,1.727.25,2.255,2.255,0,0,1,.976.633,2.181,2.181,0,0,1,.438.953,7.916,7.916,0,0,1,.07,1.3V7.523a20.906,20.906,0,0,0,.086,2.484,3.206,3.206,0,0,0,.359.992H18.313A2.983,2.983,0,0,1,18.031,9.977Zm-.117-3.141a10.32,10.32,0,0,1-2.3.531,5.313,5.313,0,0,0-1.227.281,1.214,1.214,0,0,0-.555.461,1.182,1.182,0,0,0-.2.664,1.2,1.2,0,0,0,.422.938,1.848,1.848,0,0,0,1.25.375,2.926,2.926,0,0,0,1.445-.352,2.211,2.211,0,0,0,.93-.977,3.4,3.4,0,0,0,.227-1.406Zm9.023,1.125,1.383.18a3.594,3.594,0,0,1-1.164,2.242,3.375,3.375,0,0,1-2.289.8,3.581,3.581,0,0,1-2.742-1.109,4.543,4.543,0,0,1-1.031-3.2,5.775,5.775,0,0,1,.445-2.352,3.089,3.089,0,0,1,1.351-1.508,4.019,4.019,0,0,1,1.984-.508,3.429,3.429,0,0,1,2.211.688,3.118,3.118,0,0,1,1.1,1.938l-1.367.211a2.258,2.258,0,0,0-.7-1.258,1.774,1.774,0,0,0-1.2-.422,2.178,2.178,0,0,0-1.727.766,3.6,3.6,0,0,0-.664,2.406,3.738,3.738,0,0,0,.641,2.43,2.085,2.085,0,0,0,1.672.758,1.971,1.971,0,0,0,1.383-.508A2.52,2.52,0,0,0,26.938,7.961ZM23.68,12.047l.406-1.383h1.047l-.258.836a1.671,1.671,0,0,1,1,.406,1.03,1.03,0,0,1,.336.742,1.3,1.3,0,0,1-.562,1.031,2.667,2.667,0,0,1-1.7.453,5.976,5.976,0,0,1-1.125-.094l.086-.914q.5.031.734.031a1.917,1.917,0,0,0,1.031-.2.456.456,0,0,0,.226-.383.373.373,0,0,0-.094-.25.679.679,0,0,0-.328-.187A3.048,3.048,0,0,0,23.68,12.047Zm11.258-2.07a5.215,5.215,0,0,1-1.508.938,4.314,4.314,0,0,1-1.547.273,3.028,3.028,0,0,1-2.1-.664,2.217,2.217,0,0,1-.734-1.711A2.274,2.274,0,0,1,29.32,7.7a2.336,2.336,0,0,1,.727-.812,3.47,3.47,0,0,1,1.016-.461,10.046,10.046,0,0,1,1.25-.211,12.853,12.853,0,0,0,2.508-.484q.008-.289.008-.367a1.553,1.553,0,0,0-.4-1.211,2.353,2.353,0,0,0-1.6-.477,2.481,2.481,0,0,0-1.469.352,2.115,2.115,0,0,0-.7,1.227L29.289,5.07a3.375,3.375,0,0,1,.617-1.422,2.667,2.667,0,0,1,1.242-.836,5.474,5.474,0,0,1,1.883-.3,4.984,4.984,0,0,1,1.727.25,2.256,2.256,0,0,1,.977.633,2.183,2.183,0,0,1,.438.953,7.916,7.916,0,0,1,.07,1.3V7.523a20.916,20.916,0,0,0,.086,2.484,3.2,3.2,0,0,0,.359.992H35.219A2.981,2.981,0,0,1,34.938,9.977ZM34.82,6.836a10.317,10.317,0,0,1-2.3.531,5.312,5.312,0,0,0-1.226.281,1.214,1.214,0,0,0-.555.461,1.182,1.182,0,0,0-.2.664,1.2,1.2,0,0,0,.422.938,1.847,1.847,0,0,0,1.25.375,2.926,2.926,0,0,0,1.445-.352,2.212,2.212,0,0,0,.93-.977,3.4,3.4,0,0,0,.227-1.406Zm4-2.531V2.7h1.6V4.3Zm0,6.7V9.4h1.6V11Z" transform="translate(100 355.221)"/>
    <path id="Path_37" data-name="Path 37" class="cls-3" d="M1.266,11V-.453H9.547V.9H2.781V4.406H9.117V5.75H2.781v3.9H9.813V11Zm9.9-2.477L12.555,8.3A1.952,1.952,0,0,0,13.2,9.586a2.29,2.29,0,0,0,1.5.445,2.214,2.214,0,0,0,1.438-.391,1.191,1.191,0,0,0,.469-.93.854.854,0,0,0-.414-.75,6.1,6.1,0,0,0-1.437-.477,13.662,13.662,0,0,1-2.148-.672,2.141,2.141,0,0,1-.906-.789,2.21,2.21,0,0,1-.055-2.141,2.3,2.3,0,0,1,.7-.789,2.843,2.843,0,0,1,.891-.406,4.2,4.2,0,0,1,1.219-.172,4.77,4.77,0,0,1,1.711.281,2.319,2.319,0,0,1,1.094.766,2.946,2.946,0,0,1,.484,1.281l-1.375.188a1.5,1.5,0,0,0-.547-1,1.969,1.969,0,0,0-1.266-.359,2.3,2.3,0,0,0-1.383.32.932.932,0,0,0-.414.75.776.776,0,0,0,.172.492,1.24,1.24,0,0,0,.539.375q.211.078,1.242.359a16.393,16.393,0,0,1,2.078.656,2.084,2.084,0,0,1,.93.734,2.061,2.061,0,0,1,.336,1.2,2.363,2.363,0,0,1-.414,1.328,2.659,2.659,0,0,1-1.18.961,4.352,4.352,0,0,1-1.75.336,3.916,3.916,0,0,1-2.469-.672A3.132,3.132,0,0,1,11.164,8.523Zm8.563,5.656V2.7h1.281V3.781a3.116,3.116,0,0,1,1.023-.945,2.785,2.785,0,0,1,1.383-.32,3.279,3.279,0,0,1,1.875.547,3.354,3.354,0,0,1,1.226,1.547,5.6,5.6,0,0,1,.414,2.18,5.534,5.534,0,0,1-.461,2.3,3.462,3.462,0,0,1-3.156,2.1,2.67,2.67,0,0,1-1.266-.3,2.886,2.886,0,0,1-.914-.75V14.18ZM21,6.9a3.609,3.609,0,0,0,.648,2.367,1.989,1.989,0,0,0,1.57.766,2.025,2.025,0,0,0,1.6-.789,3.763,3.763,0,0,0,.672-2.461,3.65,3.65,0,0,0-.656-2.375,1.953,1.953,0,0,0-1.555-.789,2.033,2.033,0,0,0-1.594.844A3.756,3.756,0,0,0,21,6.9Zm13.313,1.43,1.453.18a3.545,3.545,0,0,1-1.273,1.977,3.829,3.829,0,0,1-2.375.7,3.815,3.815,0,0,1-2.891-1.117,4.4,4.4,0,0,1-1.062-3.148,4.584,4.584,0,0,1,1.078-3.25,3.649,3.649,0,0,1,2.8-1.156,3.547,3.547,0,0,1,2.719,1.133,4.5,4.5,0,0,1,1.055,3.188q0,.125-.008.375H29.617A3.189,3.189,0,0,0,30.391,9.3a2.3,2.3,0,0,0,1.734.727,2.152,2.152,0,0,0,1.32-.406A2.7,2.7,0,0,0,34.313,8.328ZM29.7,6.055h4.633a2.811,2.811,0,0,0-.531-1.57,2.155,2.155,0,0,0-1.742-.812,2.247,2.247,0,0,0-1.633.648A2.576,2.576,0,0,0,29.7,6.055Zm1.516-4.383L32.25-.516h1.844L32.375,1.672ZM42.953,7.961l1.383.18a3.594,3.594,0,0,1-1.164,2.242,3.375,3.375,0,0,1-2.289.8,3.581,3.581,0,0,1-2.742-1.109,4.543,4.543,0,0,1-1.031-3.2,5.775,5.775,0,0,1,.445-2.352,3.09,3.09,0,0,1,1.352-1.508,4.019,4.019,0,0,1,1.984-.508A3.43,3.43,0,0,1,43.1,3.2a3.118,3.118,0,0,1,1.1,1.938l-1.367.211a2.258,2.258,0,0,0-.7-1.258,1.774,1.774,0,0,0-1.2-.422,2.178,2.178,0,0,0-1.727.766,3.6,3.6,0,0,0-.664,2.406,3.738,3.738,0,0,0,.641,2.43,2.085,2.085,0,0,0,1.672.758,1.97,1.97,0,0,0,1.383-.508A2.52,2.52,0,0,0,42.953,7.961Zm2.594-6.8V-.453h1.406V1.164Zm0,9.836V2.7h1.406V11Zm9.234-2.672,1.453.18a3.546,3.546,0,0,1-1.274,1.977A4.326,4.326,0,0,1,49.7,10.07a4.4,4.4,0,0,1-1.062-3.148,4.585,4.585,0,0,1,1.078-3.25,3.65,3.65,0,0,1,2.8-1.156,3.547,3.547,0,0,1,2.719,1.133,4.5,4.5,0,0,1,1.055,3.188q0,.125-.008.375H50.086A3.188,3.188,0,0,0,50.859,9.3a2.3,2.3,0,0,0,1.734.727,2.152,2.152,0,0,0,1.32-.406A2.7,2.7,0,0,0,54.781,8.328ZM50.164,6.055H54.8a2.81,2.81,0,0,0-.531-1.57,2.155,2.155,0,0,0-1.742-.812,2.247,2.247,0,0,0-1.633.648A2.575,2.575,0,0,0,50.164,6.055ZM58.4,4.3V2.7H60V4.3Zm0,6.7V9.4H60V11Z" transform="translate(100 388.932)"/>
    <path id="Path_38" data-name="Path 38" class="cls-3" d="M.719,7.32,2.148,7.2a3.217,3.217,0,0,0,.469,1.414A2.645,2.645,0,0,0,3.773,9.5a4.408,4.408,0,0,0,1.758.336,4.212,4.212,0,0,0,1.531-.258,2.111,2.111,0,0,0,.984-.7,1.644,1.644,0,0,0,.328-.984,1.474,1.474,0,0,0-.312-.937,2.3,2.3,0,0,0-1.031-.68,19.8,19.8,0,0,0-2.039-.555A10.523,10.523,0,0,1,2.781,5,3.145,3.145,0,0,1,1.555,3.938a2.652,2.652,0,0,1-.4-1.43A2.892,2.892,0,0,1,1.648.891,3.039,3.039,0,0,1,3.086-.258a5.454,5.454,0,0,1,2.1-.391A5.665,5.665,0,0,1,7.43-.234a3.214,3.214,0,0,1,1.5,1.2,3.467,3.467,0,0,1,.563,1.8l-1.453.109a2.337,2.337,0,0,0-.8-1.641A3.07,3.07,0,0,0,5.25.688,3.2,3.2,0,0,0,3.242,1.2a1.5,1.5,0,0,0-.625,1.211,1.3,1.3,0,0,0,.445,1.016,6.053,6.053,0,0,0,2.281.82,14.958,14.958,0,0,1,2.539.727A3.459,3.459,0,0,1,9.359,6.141a2.827,2.827,0,0,1,.477,1.625,3.134,3.134,0,0,1-.523,1.727A3.478,3.478,0,0,1,7.8,10.75a5.252,5.252,0,0,1-2.2.445,6.619,6.619,0,0,1-2.609-.453A3.685,3.685,0,0,1,1.344,9.383,3.905,3.905,0,0,1,.719,7.32ZM17.406,8.328l1.453.18a3.546,3.546,0,0,1-1.274,1.977,3.828,3.828,0,0,1-2.375.7A3.815,3.815,0,0,1,12.32,10.07a4.4,4.4,0,0,1-1.062-3.148,4.585,4.585,0,0,1,1.078-3.25,3.65,3.65,0,0,1,2.8-1.156,3.547,3.547,0,0,1,2.719,1.133,4.5,4.5,0,0,1,1.055,3.188q0,.125-.008.375H12.711A3.188,3.188,0,0,0,13.484,9.3a2.3,2.3,0,0,0,1.734.727,2.152,2.152,0,0,0,1.32-.406A2.7,2.7,0,0,0,17.406,8.328ZM12.789,6.055h4.633a2.81,2.81,0,0,0-.531-1.57,2.155,2.155,0,0,0-1.742-.812,2.247,2.247,0,0,0-1.633.648A2.575,2.575,0,0,0,12.789,6.055ZM19.7,11l3.031-4.312L19.922,2.7H21.68l1.273,1.945q.359.555.578.93.344-.516.633-.914l1.4-1.961h1.68L24.375,6.609,27.461,11H25.734l-1.7-2.578-.453-.7L21.4,11Zm8.414-4.148a4.277,4.277,0,0,1,1.281-3.414A3.861,3.861,0,0,1,32,2.516a3.716,3.716,0,0,1,2.8,1.125,4.252,4.252,0,0,1,1.086,3.094A5.475,5.475,0,0,1,35.4,9.258,3.377,3.377,0,0,1,34,10.68a4.05,4.05,0,0,1-2,.508,3.742,3.742,0,0,1-2.82-1.117A4.472,4.472,0,0,1,28.109,6.852Zm1.445,0a3.55,3.55,0,0,0,.7,2.391,2.319,2.319,0,0,0,3.492-.008,3.618,3.618,0,0,0,.7-2.43,3.4,3.4,0,0,0-.7-2.328A2.208,2.208,0,0,0,32,3.68a2.233,2.233,0,0,0-1.75.789A3.518,3.518,0,0,0,29.555,6.852ZM37.93,4.3V2.7h1.6V4.3Zm0,6.7V9.4h1.6V11Z" transform="translate(100 422.644)"/>
    <path id="Path_39" data-name="Path 39" class="cls-3" d="M1.234,11V-.453h4.32A10.431,10.431,0,0,1,7.3-.344,3.417,3.417,0,0,1,8.711.2a2.748,2.748,0,0,1,.914,1.1,3.476,3.476,0,0,1,.352,1.563,3.535,3.535,0,0,1-.93,2.477A4.471,4.471,0,0,1,5.688,6.344H2.75V11ZM2.75,4.992H5.711A3.14,3.14,0,0,0,7.8,4.445a1.949,1.949,0,0,0,.617-1.539A2.037,2.037,0,0,0,8.047,1.68,1.675,1.675,0,0,0,7.094,1,6.476,6.476,0,0,0,5.68.9H2.75ZM17.406,8.328l1.453.18a3.546,3.546,0,0,1-1.274,1.977,3.828,3.828,0,0,1-2.375.7A3.815,3.815,0,0,1,12.32,10.07a4.4,4.4,0,0,1-1.062-3.148,4.585,4.585,0,0,1,1.078-3.25,3.65,3.65,0,0,1,2.8-1.156,3.547,3.547,0,0,1,2.719,1.133,4.5,4.5,0,0,1,1.055,3.188q0,.125-.008.375H12.711A3.188,3.188,0,0,0,13.484,9.3a2.3,2.3,0,0,0,1.734.727,2.152,2.152,0,0,0,1.32-.406A2.7,2.7,0,0,0,17.406,8.328ZM12.789,6.055h4.633a2.81,2.81,0,0,0-.531-1.57,2.155,2.155,0,0,0-1.742-.812,2.247,2.247,0,0,0-1.633.648A2.575,2.575,0,0,0,12.789,6.055ZM20.6,11V-.453h1.406V11Zm9.008-1.023a5.218,5.218,0,0,1-1.508.938,4.314,4.314,0,0,1-1.547.273,3.028,3.028,0,0,1-2.1-.664,2.217,2.217,0,0,1-.734-1.711A2.274,2.274,0,0,1,23.992,7.7a2.336,2.336,0,0,1,.727-.812,3.469,3.469,0,0,1,1.016-.461,10.046,10.046,0,0,1,1.25-.211,12.854,12.854,0,0,0,2.508-.484q.008-.289.008-.367a1.553,1.553,0,0,0-.4-1.211,2.354,2.354,0,0,0-1.6-.477,2.481,2.481,0,0,0-1.469.352,2.116,2.116,0,0,0-.7,1.227L23.961,5.07a3.375,3.375,0,0,1,.617-1.422,2.666,2.666,0,0,1,1.242-.836,5.474,5.474,0,0,1,1.883-.3,4.984,4.984,0,0,1,1.727.25,2.255,2.255,0,0,1,.976.633,2.182,2.182,0,0,1,.438.953,7.927,7.927,0,0,1,.07,1.3V7.523A20.915,20.915,0,0,0,31,10.008a3.2,3.2,0,0,0,.359.992H29.891A2.981,2.981,0,0,1,29.609,9.977Zm-.117-3.141a10.318,10.318,0,0,1-2.3.531,5.311,5.311,0,0,0-1.226.281,1.214,1.214,0,0,0-.555.461,1.182,1.182,0,0,0-.2.664,1.2,1.2,0,0,0,.422.938,1.848,1.848,0,0,0,1.25.375,2.925,2.925,0,0,0,1.445-.352,2.211,2.211,0,0,0,.93-.977,3.4,3.4,0,0,0,.227-1.406Zm3.352,4.852,1.367.2a1.3,1.3,0,0,0,.477.922,2.341,2.341,0,0,0,1.43.391,2.511,2.511,0,0,0,1.508-.391,1.922,1.922,0,0,0,.719-1.094,8.986,8.986,0,0,0,.1-1.8A2.893,2.893,0,0,1,36.148,11,3.131,3.131,0,0,1,33.5,9.766,4.753,4.753,0,0,1,32.563,6.8a5.482,5.482,0,0,1,.43-2.187,3.444,3.444,0,0,1,1.242-1.555,3.383,3.383,0,0,1,1.922-.547A2.974,2.974,0,0,1,38.578,3.7v-1h1.3V9.875a6.712,6.712,0,0,1-.4,2.742,2.854,2.854,0,0,1-1.25,1.281,4.309,4.309,0,0,1-2.1.469,3.953,3.953,0,0,1-2.4-.672A2.248,2.248,0,0,1,32.844,11.688ZM34.008,6.7a3.6,3.6,0,0,0,.648,2.383,2.059,2.059,0,0,0,1.625.75,2.083,2.083,0,0,0,1.625-.742,3.5,3.5,0,0,0,.656-2.344,3.389,3.389,0,0,0-.68-2.3,2.078,2.078,0,0,0-1.625-.773,2.026,2.026,0,0,0-1.594.766A3.367,3.367,0,0,0,34.008,6.7Zm13.68,1.625,1.453.18a3.545,3.545,0,0,1-1.273,1.977A4.326,4.326,0,0,1,42.6,10.07a4.4,4.4,0,0,1-1.062-3.148,4.584,4.584,0,0,1,1.078-3.25,3.649,3.649,0,0,1,2.8-1.156,3.547,3.547,0,0,1,2.719,1.133,4.5,4.5,0,0,1,1.055,3.188q0,.125-.008.375H42.992A3.189,3.189,0,0,0,43.766,9.3a2.3,2.3,0,0,0,1.734.727,2.152,2.152,0,0,0,1.32-.406A2.7,2.7,0,0,0,47.688,8.328ZM43.07,6.055H47.7a2.811,2.811,0,0,0-.531-1.57,2.155,2.155,0,0,0-1.742-.812A2.247,2.247,0,0,0,43.8,4.32,2.576,2.576,0,0,0,43.07,6.055ZM50.914,11V2.7h1.258V3.867a2.947,2.947,0,0,1,2.516-1.352A2.709,2.709,0,0,1,56.2,2.9a2.043,2.043,0,0,1,.836,1.07,2.979,2.979,0,0,1,2.563-1.453,2.517,2.517,0,0,1,1.9.688,2.907,2.907,0,0,1,.664,2.1V11h-1.4V5.773a3.711,3.711,0,0,0-.141-1.211,1.155,1.155,0,0,0-.492-.6,1.549,1.549,0,0,0-.844-.227,1.957,1.957,0,0,0-1.453.586A2.549,2.549,0,0,0,57.25,6.18V11H55.844V5.609A2.372,2.372,0,0,0,55.5,4.2a1.3,1.3,0,0,0-1.125-.469,2.064,2.064,0,0,0-1.1.312,1.779,1.779,0,0,0-.726.914A5.144,5.144,0,0,0,52.32,6.7V11ZM64.633,4.3V2.7h1.6V4.3Zm0,6.7V9.4h1.6V11Z" transform="translate(100 456.355)"/>
    <path id="Path_40" data-name="Path 40" class="cls-3" d="M1.188,11V-.453H3.469L6.18,7.656q.375,1.133.547,1.7.2-.625.609-1.836L10.078-.453h2.039V11H10.656V1.414L7.328,11H5.961L2.648,1.25V11Zm13.2-9.836V-.453H15.8V1.164Zm0,9.836V2.7H15.8V11Zm8.969-3.039,1.383.18a3.6,3.6,0,0,1-1.164,2.242,3.375,3.375,0,0,1-2.289.8,3.581,3.581,0,0,1-2.742-1.109,4.543,4.543,0,0,1-1.031-3.2,5.776,5.776,0,0,1,.445-2.352,3.09,3.09,0,0,1,1.352-1.508A4.019,4.019,0,0,1,21.3,2.516a3.429,3.429,0,0,1,2.211.688,3.118,3.118,0,0,1,1.1,1.938l-1.367.211a2.258,2.258,0,0,0-.7-1.258,1.774,1.774,0,0,0-1.2-.422,2.178,2.178,0,0,0-1.727.766,3.6,3.6,0,0,0-.664,2.406,3.738,3.738,0,0,0,.641,2.43,2.084,2.084,0,0,0,1.672.758,1.97,1.97,0,0,0,1.383-.508A2.52,2.52,0,0,0,23.359,7.961ZM25.93,11V2.7H27.2V3.961A3.466,3.466,0,0,1,28.086,2.8a1.58,1.58,0,0,1,.906-.281,2.743,2.743,0,0,1,1.445.453l-.484,1.3a2.012,2.012,0,0,0-1.031-.3,1.327,1.327,0,0,0-.828.281,1.481,1.481,0,0,0-.524.766,5.479,5.479,0,0,0-.234,1.641V11Zm4.82-4.148a4.277,4.277,0,0,1,1.281-3.414,3.861,3.861,0,0,1,2.609-.922,3.716,3.716,0,0,1,2.8,1.125,4.251,4.251,0,0,1,1.086,3.094,5.476,5.476,0,0,1-.484,2.523,3.377,3.377,0,0,1-1.4,1.422,4.05,4.05,0,0,1-2,.508,3.742,3.742,0,0,1-2.82-1.117A4.473,4.473,0,0,1,30.75,6.852Zm1.445,0a3.55,3.55,0,0,0,.7,2.391,2.319,2.319,0,0,0,3.492-.008,3.617,3.617,0,0,0,.7-2.43,3.4,3.4,0,0,0-.7-2.328,2.208,2.208,0,0,0-1.734-.8,2.234,2.234,0,0,0-1.75.789A3.518,3.518,0,0,0,32.2,6.852Zm13.4,1.109,1.383.18a3.6,3.6,0,0,1-1.164,2.242,3.375,3.375,0,0,1-2.289.8,3.581,3.581,0,0,1-2.742-1.109,4.543,4.543,0,0,1-1.031-3.2A5.775,5.775,0,0,1,40.2,4.531a3.09,3.09,0,0,1,1.352-1.508,4.019,4.019,0,0,1,1.984-.508,3.43,3.43,0,0,1,2.211.688,3.118,3.118,0,0,1,1.1,1.938l-1.367.211a2.258,2.258,0,0,0-.7-1.258,1.774,1.774,0,0,0-1.2-.422,2.178,2.178,0,0,0-1.726.766A3.6,3.6,0,0,0,41.2,6.844a3.738,3.738,0,0,0,.641,2.43,2.085,2.085,0,0,0,1.672.758,1.97,1.97,0,0,0,1.383-.508A2.52,2.52,0,0,0,45.594,7.961ZM48.18,11V-.453h1.406V3.656A3.142,3.142,0,0,1,52.07,2.516a3.321,3.321,0,0,1,1.6.367,2.093,2.093,0,0,1,.969,1,4.573,4.573,0,0,1,.3,1.859V11H53.531V5.742a2.145,2.145,0,0,0-.461-1.531,1.679,1.679,0,0,0-1.289-.484,2.28,2.28,0,0,0-1.18.328,1.816,1.816,0,0,0-.781.875,4.038,4.038,0,0,0-.234,1.531V11Zm8.914-9.836V-.453H58.5V1.164Zm0,9.836V2.7H58.5V11Zm3.555,3.18V2.7H61.93V3.781a3.116,3.116,0,0,1,1.023-.945,2.784,2.784,0,0,1,1.383-.32,3.278,3.278,0,0,1,1.875.547,3.353,3.353,0,0,1,1.227,1.547,5.605,5.605,0,0,1,.414,2.18,5.533,5.533,0,0,1-.461,2.3,3.462,3.462,0,0,1-3.156,2.1,2.669,2.669,0,0,1-1.266-.3,2.886,2.886,0,0,1-.914-.75V14.18ZM61.922,6.9a3.609,3.609,0,0,0,.648,2.367,1.988,1.988,0,0,0,1.57.766,2.025,2.025,0,0,0,1.6-.789,3.763,3.763,0,0,0,.672-2.461,3.65,3.65,0,0,0-.656-2.375A1.953,1.953,0,0,0,64.2,3.617a2.033,2.033,0,0,0-1.594.844A3.756,3.756,0,0,0,61.922,6.9ZM69.945,4.3V2.7h1.6V4.3Zm0,6.7V9.4h1.6V11Z" transform="translate(100 490.066)"/>
    <path id="Path_41" data-name="Path 41" class="cls-3" d="M55.8,8.86l1.608-.141a3.619,3.619,0,0,0,.527,1.591,2.976,2.976,0,0,0,1.3,1,4.958,4.958,0,0,0,1.977.378,4.738,4.738,0,0,0,1.723-.29,2.374,2.374,0,0,0,1.107-.791A1.85,1.85,0,0,0,64.418,9.5a1.659,1.659,0,0,0-.352-1.055,2.584,2.584,0,0,0-1.16-.765,22.271,22.271,0,0,0-2.294-.624,11.839,11.839,0,0,1-2.487-.809,3.538,3.538,0,0,1-1.38-1.2A2.984,2.984,0,0,1,56.3,3.446a3.253,3.253,0,0,1,.554-1.819A3.419,3.419,0,0,1,58.468.335,6.135,6.135,0,0,1,60.832-.1a6.373,6.373,0,0,1,2.522.466,3.616,3.616,0,0,1,1.688,1.354,3.9,3.9,0,0,1,.633,2.03l-1.635.123a2.63,2.63,0,0,0-.9-1.846A3.454,3.454,0,0,0,60.9,1.4a3.6,3.6,0,0,0-2.259.571,1.692,1.692,0,0,0-.7,1.362,1.465,1.465,0,0,0,.5,1.143,6.81,6.81,0,0,0,2.566.923,16.831,16.831,0,0,1,2.856.817,3.891,3.891,0,0,1,1.661,1.318,3.181,3.181,0,0,1,.536,1.828,3.526,3.526,0,0,1-.589,1.942,3.914,3.914,0,0,1-1.7,1.415,5.91,5.91,0,0,1-2.479.5,7.447,7.447,0,0,1-2.936-.51,4.146,4.146,0,0,1-1.854-1.529A4.393,4.393,0,0,1,55.8,8.86ZM74.28,11.849a5.868,5.868,0,0,1-1.7,1.055,4.853,4.853,0,0,1-1.74.308,3.407,3.407,0,0,1-2.364-.747,2.494,2.494,0,0,1-.826-1.925,2.558,2.558,0,0,1,.308-1.248,2.629,2.629,0,0,1,.817-.914,3.9,3.9,0,0,1,1.143-.519,11.308,11.308,0,0,1,1.406-.237,14.462,14.462,0,0,0,2.821-.545q.009-.325.009-.413A1.747,1.747,0,0,0,73.708,5.3a2.648,2.648,0,0,0-1.8-.536,2.791,2.791,0,0,0-1.652.4,2.379,2.379,0,0,0-.782,1.38l-1.547-.211a3.8,3.8,0,0,1,.694-1.6,3,3,0,0,1,1.4-.94,6.159,6.159,0,0,1,2.118-.334,5.606,5.606,0,0,1,1.942.281,2.537,2.537,0,0,1,1.1.712,2.455,2.455,0,0,1,.492,1.072,8.911,8.911,0,0,1,.079,1.459V9.089a23.547,23.547,0,0,0,.1,2.795,3.608,3.608,0,0,0,.4,1.116H74.6A3.354,3.354,0,0,1,74.28,11.849Zm-.132-3.533a11.609,11.609,0,0,1-2.584.6,5.976,5.976,0,0,0-1.38.316,1.366,1.366,0,0,0-.624.519,1.33,1.33,0,0,0-.22.747,1.352,1.352,0,0,0,.475,1.055,2.078,2.078,0,0,0,1.406.422,3.292,3.292,0,0,0,1.626-.4,2.488,2.488,0,0,0,1.046-1.1A3.822,3.822,0,0,0,74.148,8.9Zm4.069-6.381V.115H79.8V1.935Zm0,11.065V3.666H79.8V13ZM82.2,13V3.666h1.424V5.081a3.9,3.9,0,0,1,1-1.31,1.777,1.777,0,0,1,1.02-.316,3.086,3.086,0,0,1,1.626.51l-.545,1.468a2.263,2.263,0,0,0-1.16-.343,1.493,1.493,0,0,0-.932.316,1.666,1.666,0,0,0-.589.861,6.165,6.165,0,0,0-.264,1.846V13Z" transform="translate(887.98 150.334)"/>
    <path id="Path_42" data-name="Path 42" class="cls-3" d="M13.881,27.8c0,.658.282,2.254-.694,2.254H6.247A6.522,6.522,0,0,1,0,23.291V6.762A6.522,6.522,0,0,1,6.247,0h6.941a.744.744,0,0,1,.694.751c0,.658.282,2.254-.694,2.254H6.247a3.633,3.633,0,0,0-3.47,3.757V23.291a3.633,3.633,0,0,0,3.47,3.757h6.247C13.036,27.048,13.881,26.931,13.881,27.8ZM34.009,15.027a1.551,1.551,0,0,1-.412,1.056L21.8,28.856a1.333,1.333,0,0,1-.976.446,1.459,1.459,0,0,1-1.388-1.5V21.037H9.717a1.459,1.459,0,0,1-1.388-1.5V10.519a1.459,1.459,0,0,1,1.388-1.5h9.717V2.254a1.459,1.459,0,0,1,1.388-1.5A1.325,1.325,0,0,1,21.8,1.2L33.6,13.97A1.561,1.561,0,0,1,34.009,15.027Z" transform="translate(942.046 106.193)"/>
    <path id="Path_43" data-name="Path 43" class="cls-3" d="M39.914,13V.115h9.316V1.636H41.619V5.582h7.128V7.094H41.619v4.386h7.91V13Zm10.714,0,3.41-4.852L50.883,3.666h1.978l1.433,2.188q.4.624.65,1.046.387-.58.712-1.028l1.573-2.206h1.89L55.893,8.061,59.364,13H57.422l-1.916-2.9L55,9.317,52.544,13Zm16.145-1.151a5.866,5.866,0,0,1-1.7,1.055,4.852,4.852,0,0,1-1.74.308,3.406,3.406,0,0,1-2.364-.747,2.494,2.494,0,0,1-.826-1.925,2.558,2.558,0,0,1,.308-1.248,2.628,2.628,0,0,1,.817-.914,3.9,3.9,0,0,1,1.143-.519,11.305,11.305,0,0,1,1.406-.237,14.459,14.459,0,0,0,2.821-.545q.009-.325.009-.413A1.746,1.746,0,0,0,66.2,5.3a2.647,2.647,0,0,0-1.8-.536,2.791,2.791,0,0,0-1.652.4,2.38,2.38,0,0,0-.782,1.38l-1.547-.211a3.8,3.8,0,0,1,.694-1.6,3,3,0,0,1,1.4-.94,6.159,6.159,0,0,1,2.118-.334,5.607,5.607,0,0,1,1.942.281,2.537,2.537,0,0,1,1.1.712,2.454,2.454,0,0,1,.492,1.072,8.912,8.912,0,0,1,.079,1.459V9.089a23.516,23.516,0,0,0,.1,2.795,3.606,3.606,0,0,0,.4,1.116H67.09A3.356,3.356,0,0,1,66.774,11.849Zm-.132-3.533a11.607,11.607,0,0,1-2.584.6,5.978,5.978,0,0,0-1.38.316,1.366,1.366,0,0,0-.624.519,1.329,1.329,0,0,0-.22.747,1.353,1.353,0,0,0,.475,1.055,2.078,2.078,0,0,0,1.406.422,3.292,3.292,0,0,0,1.626-.4,2.487,2.487,0,0,0,1.046-1.1A3.822,3.822,0,0,0,66.642,8.9ZM70.7,13V3.666h1.415v1.31a3.316,3.316,0,0,1,2.83-1.521,3.048,3.048,0,0,1,1.7.431,2.3,2.3,0,0,1,.94,1.2,3.351,3.351,0,0,1,2.883-1.635,2.832,2.832,0,0,1,2.136.773,3.27,3.27,0,0,1,.747,2.364V13H81.777V7.12a4.175,4.175,0,0,0-.158-1.362,1.3,1.3,0,0,0-.554-.677,1.743,1.743,0,0,0-.949-.255,2.2,2.2,0,0,0-1.635.659,2.867,2.867,0,0,0-.65,2.092V13H76.248V6.936a2.668,2.668,0,0,0-.387-1.582A1.464,1.464,0,0,0,74.6,4.826a2.321,2.321,0,0,0-1.239.352,2,2,0,0,0-.817,1.028,5.787,5.787,0,0,0-.255,1.951V13ZM92.086,9.994l1.635.2a3.989,3.989,0,0,1-1.433,2.224,4.867,4.867,0,0,1-5.924-.466,4.955,4.955,0,0,1-1.2-3.542,5.158,5.158,0,0,1,1.213-3.656,4.106,4.106,0,0,1,3.146-1.3,3.99,3.99,0,0,1,3.059,1.274,5.064,5.064,0,0,1,1.187,3.586q0,.141-.009.422H86.8a3.587,3.587,0,0,0,.87,2.356,2.59,2.59,0,0,0,1.951.817,2.42,2.42,0,0,0,1.485-.457A3.033,3.033,0,0,0,92.086,9.994ZM86.892,7.437H92.1a3.162,3.162,0,0,0-.6-1.767,2.425,2.425,0,0,0-1.96-.914,2.528,2.528,0,0,0-1.837.729A2.9,2.9,0,0,0,86.892,7.437Zm8.191,2.777,1.564-.246a2.2,2.2,0,0,0,.729,1.441,2.576,2.576,0,0,0,1.688.5,2.492,2.492,0,0,0,1.617-.439,1.341,1.341,0,0,0,.527-1.046.96.96,0,0,0-.466-.844,6.842,6.842,0,0,0-1.617-.536,15.37,15.37,0,0,1-2.417-.756A2.408,2.408,0,0,1,95.69,7.4a2.486,2.486,0,0,1-.062-2.408,2.591,2.591,0,0,1,.782-.888,3.2,3.2,0,0,1,1-.457,4.728,4.728,0,0,1,1.371-.193,5.366,5.366,0,0,1,1.925.316,2.61,2.61,0,0,1,1.231.861,3.327,3.327,0,0,1,.545,1.441l-1.547.211a1.688,1.688,0,0,0-.616-1.125,2.213,2.213,0,0,0-1.423-.4,2.586,2.586,0,0,0-1.556.36,1.049,1.049,0,0,0-.466.844.873.873,0,0,0,.193.554,1.4,1.4,0,0,0,.606.422q.237.088,1.4.4a18.378,18.378,0,0,1,2.338.738,2.21,2.21,0,0,1,1.424,2.18,2.656,2.656,0,0,1-.466,1.494,2.989,2.989,0,0,1-1.327,1.081,4.894,4.894,0,0,1-1.969.378,4.405,4.405,0,0,1-2.777-.756A3.524,3.524,0,0,1,95.083,10.214Z" transform="translate(746.838 150.334)"/>
    <path id="Path_44" data-name="Path 44" class="cls-3" d="M23.253,17.532h5.541c-.217.254-.364.392-.4.431L17.077,29.7a1.085,1.085,0,0,1-1.6,0L4.141,17.924a2.64,2.64,0,0,1-.381-.392h6.7a1.188,1.188,0,0,0,1.127-.939l1.272-5.5,3.452,13.05a1.143,1.143,0,0,0,2.235,0L21.2,14.655l1.017,2.191a1.176,1.176,0,0,0,1.036.685Zm9.3-8.375a11.439,11.439,0,0,1-1.871,5.87h-6.7L21.964,10.7a1.157,1.157,0,0,0-1.127-.685,1.173,1.173,0,0,0-1.017.9l-2.344,8.413L13.915,5.91a1.191,1.191,0,0,0-1.144-.9,1.166,1.166,0,0,0-1.108.939L9.555,15.027H1.871A11.435,11.435,0,0,1,0,9.157C0,3.425,3.252,0,8.684,0c3.179,0,6.159,2.7,7.593,4.226C17.712,2.7,20.692,0,23.871,0,29.3,0,32.555,3.423,32.555,9.157Z" transform="translate(801.776 106.193)"/>
    <path id="Path_45" data-name="Path 45" class="cls-3" d="M41.54,8.482l1.705.431a5.751,5.751,0,0,1-1.934,3.208,5.312,5.312,0,0,1-3.4,1.1,6.167,6.167,0,0,1-3.393-.844,5.36,5.36,0,0,1-1.986-2.461,8.816,8.816,0,0,1-.677-3.454,7.6,7.6,0,0,1,.765-3.507A5.271,5.271,0,0,1,34.808.678,6.391,6.391,0,0,1,37.937-.1,5.282,5.282,0,0,1,41.189.88a5.112,5.112,0,0,1,1.837,2.769l-1.679.4A3.982,3.982,0,0,0,40.046,2,3.466,3.466,0,0,0,37.9,1.354a4.186,4.186,0,0,0-2.487.712,3.767,3.767,0,0,0-1.4,1.916,7.657,7.657,0,0,0-.4,2.47,7.964,7.964,0,0,0,.475,2.874,3.591,3.591,0,0,0,1.494,1.828,4.178,4.178,0,0,0,2.188.606,3.667,3.667,0,0,0,2.426-.826A4.228,4.228,0,0,0,41.54,8.482Zm3.024-.149a4.811,4.811,0,0,1,1.441-3.841,4.343,4.343,0,0,1,2.936-1.037,4.18,4.18,0,0,1,3.146,1.266A4.782,4.782,0,0,1,53.309,8.2a6.16,6.16,0,0,1-.545,2.839,3.8,3.8,0,0,1-1.573,1.6,4.555,4.555,0,0,1-2.25.571,4.21,4.21,0,0,1-3.173-1.257A5.031,5.031,0,0,1,44.564,8.333Zm1.626,0a3.994,3.994,0,0,0,.782,2.689,2.609,2.609,0,0,0,3.929-.009,4.07,4.07,0,0,0,.782-2.733,3.825,3.825,0,0,0-.791-2.619,2.484,2.484,0,0,0-1.951-.9,2.513,2.513,0,0,0-1.969.888A3.958,3.958,0,0,0,46.19,8.333ZM55.172,13V3.666H56.6V4.993a3.355,3.355,0,0,1,2.971-1.538,3.818,3.818,0,0,1,1.547.308,2.409,2.409,0,0,1,1.063.791,3.053,3.053,0,0,1,.492,1.169,9.058,9.058,0,0,1,.088,1.538V13H61.175V7.322a4.22,4.22,0,0,0-.185-1.441,1.492,1.492,0,0,0-.659-.765,2.036,2.036,0,0,0-1.1-.29,2.58,2.58,0,0,0-1.749.642A3.177,3.177,0,0,0,56.754,7.9V13Zm9.387-2.786,1.564-.246a2.2,2.2,0,0,0,.729,1.441,2.576,2.576,0,0,0,1.688.5,2.49,2.49,0,0,0,1.617-.439,1.34,1.34,0,0,0,.527-1.046.961.961,0,0,0-.466-.844A6.859,6.859,0,0,0,68.6,9.045a15.366,15.366,0,0,1-2.417-.756,2.409,2.409,0,0,1-1.02-.888A2.486,2.486,0,0,1,65.1,4.993a2.592,2.592,0,0,1,.782-.888,3.2,3.2,0,0,1,1-.457,4.728,4.728,0,0,1,1.371-.193,5.366,5.366,0,0,1,1.925.316,2.609,2.609,0,0,1,1.23.861,3.315,3.315,0,0,1,.545,1.441l-1.547.211A1.685,1.685,0,0,0,69.8,5.16a2.215,2.215,0,0,0-1.424-.4,2.586,2.586,0,0,0-1.556.36,1.049,1.049,0,0,0-.466.844.873.873,0,0,0,.193.554,1.4,1.4,0,0,0,.607.422q.237.088,1.4.4a18.431,18.431,0,0,1,2.338.738,2.344,2.344,0,0,1,1.046.826,2.318,2.318,0,0,1,.378,1.354,2.659,2.659,0,0,1-.466,1.494,2.992,2.992,0,0,1-1.327,1.081,4.9,4.9,0,0,1-1.969.378,4.405,4.405,0,0,1-2.777-.756A3.524,3.524,0,0,1,64.559,10.214ZM80.309,13V11.629a3.416,3.416,0,0,1-2.962,1.582,3.8,3.8,0,0,1-1.547-.316,2.6,2.6,0,0,1-1.063-.791,3.062,3.062,0,0,1-.483-1.178,8.039,8.039,0,0,1-.1-1.477V3.666h1.582V8.843a9.22,9.22,0,0,0,.1,1.67,1.669,1.669,0,0,0,.633.984,1.978,1.978,0,0,0,1.2.352A2.628,2.628,0,0,0,79,11.488a2.03,2.03,0,0,0,.879-.993,4.943,4.943,0,0,0,.264-1.828v-5h1.582V13Zm3.867,0V.115h1.582V13Zm7.5-1.415.229,1.4a5.865,5.865,0,0,1-1.2.141,2.707,2.707,0,0,1-1.336-.272,1.531,1.531,0,0,1-.668-.712,5.71,5.71,0,0,1-.193-1.872V4.9h-1.16V3.666h1.16V1.354L90.082.405V3.666h1.591V4.9H90.082v5.458a2.9,2.9,0,0,0,.079.87.691.691,0,0,0,.272.308,1.077,1.077,0,0,0,.545.114A5.147,5.147,0,0,0,91.673,11.585Zm7.647.264a5.866,5.866,0,0,1-1.7,1.055,4.852,4.852,0,0,1-1.74.308,3.406,3.406,0,0,1-2.364-.747,2.494,2.494,0,0,1-.826-1.925A2.558,2.558,0,0,1,93,9.291a2.628,2.628,0,0,1,.817-.914,3.9,3.9,0,0,1,1.143-.519,11.305,11.305,0,0,1,1.406-.237,14.459,14.459,0,0,0,2.821-.545q.009-.325.009-.413A1.746,1.746,0,0,0,98.748,5.3a2.647,2.647,0,0,0-1.8-.536,2.791,2.791,0,0,0-1.652.4,2.38,2.38,0,0,0-.782,1.38l-1.547-.211a3.8,3.8,0,0,1,.694-1.6,3,3,0,0,1,1.4-.94,6.159,6.159,0,0,1,2.118-.334,5.607,5.607,0,0,1,1.942.281,2.537,2.537,0,0,1,1.1.712,2.462,2.462,0,0,1,.492,1.072,8.88,8.88,0,0,1,.079,1.459V9.089a23.6,23.6,0,0,0,.1,2.795,3.6,3.6,0,0,0,.4,1.116H99.636A3.356,3.356,0,0,1,99.32,11.849Zm-.132-3.533a11.607,11.607,0,0,1-2.584.6,5.978,5.978,0,0,0-1.38.316,1.366,1.366,0,0,0-.624.519,1.329,1.329,0,0,0-.22.747,1.353,1.353,0,0,0,.475,1.055,2.078,2.078,0,0,0,1.406.422,3.292,3.292,0,0,0,1.626-.4,2.487,2.487,0,0,0,1.046-1.1A3.822,3.822,0,0,0,99.188,8.9Zm3.427,1.9,1.565-.246a2.2,2.2,0,0,0,.729,1.441,2.578,2.578,0,0,0,1.688.5,2.49,2.49,0,0,0,1.617-.439,1.338,1.338,0,0,0,.527-1.046.961.961,0,0,0-.465-.844,6.865,6.865,0,0,0-1.618-.536,15.406,15.406,0,0,1-2.417-.756,2.407,2.407,0,0,1-1.019-.888,2.486,2.486,0,0,1-.062-2.408,2.591,2.591,0,0,1,.783-.888,3.2,3.2,0,0,1,1-.457,4.721,4.721,0,0,1,1.371-.193,5.36,5.36,0,0,1,1.924.316,2.61,2.61,0,0,1,1.231.861,3.315,3.315,0,0,1,.545,1.441l-1.547.211a1.683,1.683,0,0,0-.615-1.125,2.216,2.216,0,0,0-1.424-.4,2.588,2.588,0,0,0-1.556.36,1.051,1.051,0,0,0-.466.844.873.873,0,0,0,.194.554,1.4,1.4,0,0,0,.606.422q.237.088,1.4.4a18.479,18.479,0,0,1,2.338.738,2.211,2.211,0,0,1,1.423,2.18,2.663,2.663,0,0,1-.465,1.494,3,3,0,0,1-1.328,1.081,4.892,4.892,0,0,1-1.968.378,4.408,4.408,0,0,1-2.778-.756A3.529,3.529,0,0,1,102.615,10.214Z" transform="translate(604.696 150.334)"/>
    <path id="Path_46" data-name="Path 46" class="cls-3" d="M23.253,11.271a1.166,1.166,0,1,0-1.163,1.252A1.218,1.218,0,0,0,23.253,11.271Zm2.325,0a3.741,3.741,0,0,1-2.325,3.541V22.54c0,4.148-3.652,7.513-8.139,7.513S6.976,26.688,6.976,22.54V19.957A7.75,7.75,0,0,1,0,12.522V2.5A1.218,1.218,0,0,1,1.163,1.252a1.362,1.362,0,0,1,.291.039A2.326,2.326,0,0,1,3.488,0,2.413,2.413,0,0,1,5.813,2.5a2.413,2.413,0,0,1-2.325,2.5,2.209,2.209,0,0,1-1.163-.352v7.865c0,2.759,2.616,5.009,5.813,5.009s5.813-2.25,5.813-5.009V4.657a2.209,2.209,0,0,1-1.163.352,2.413,2.413,0,0,1-2.325-2.5A2.413,2.413,0,0,1,12.789,0a2.326,2.326,0,0,1,2.035,1.291,1.287,1.287,0,0,1,.291-.039A1.218,1.218,0,0,1,16.277,2.5V12.522A7.75,7.75,0,0,1,9.3,19.957V22.54c0,2.759,2.616,5.009,5.813,5.009s5.813-2.25,5.813-5.009V14.812A3.742,3.742,0,0,1,18.6,11.271a3.631,3.631,0,0,1,3.488-3.757A3.631,3.631,0,0,1,25.579,11.271Z" transform="translate(663.123 106.193)"/>
    <path id="Path_47" data-name="Path 47" class="cls-3" d="M44.713,13,39.721.115h1.846l3.349,9.36q.4,1.125.677,2.109.3-1.055.694-2.109l3.48-9.36h1.74L46.462,13Zm12.876-1.151a5.869,5.869,0,0,1-1.7,1.055,4.853,4.853,0,0,1-1.74.308,3.407,3.407,0,0,1-2.364-.747,2.494,2.494,0,0,1-.826-1.925,2.559,2.559,0,0,1,.308-1.248,2.629,2.629,0,0,1,.817-.914,3.9,3.9,0,0,1,1.143-.519,11.305,11.305,0,0,1,1.406-.237,14.459,14.459,0,0,0,2.821-.545q.009-.325.009-.413A1.747,1.747,0,0,0,57.018,5.3a2.648,2.648,0,0,0-1.8-.536,2.791,2.791,0,0,0-1.652.4,2.38,2.38,0,0,0-.782,1.38l-1.547-.211a3.8,3.8,0,0,1,.694-1.6,3,3,0,0,1,1.4-.94,6.158,6.158,0,0,1,2.118-.334,5.606,5.606,0,0,1,1.942.281,2.536,2.536,0,0,1,1.1.712,2.454,2.454,0,0,1,.492,1.072,8.9,8.9,0,0,1,.079,1.459V9.089a23.539,23.539,0,0,0,.1,2.795,3.606,3.606,0,0,0,.4,1.116H57.905A3.352,3.352,0,0,1,57.589,11.849Zm-.132-3.533a11.607,11.607,0,0,1-2.584.6,5.977,5.977,0,0,0-1.38.316,1.366,1.366,0,0,0-.624.519,1.33,1.33,0,0,0-.22.747,1.353,1.353,0,0,0,.475,1.055,2.078,2.078,0,0,0,1.406.422,3.292,3.292,0,0,0,1.626-.4,2.487,2.487,0,0,0,1.046-1.1A3.82,3.82,0,0,0,57.457,8.9ZM67.609,9.581l1.556.2a4.044,4.044,0,0,1-1.31,2.523,3.8,3.8,0,0,1-2.575.905,4.029,4.029,0,0,1-3.085-1.248,5.111,5.111,0,0,1-1.16-3.595,6.5,6.5,0,0,1,.5-2.646,3.475,3.475,0,0,1,1.521-1.7,4.521,4.521,0,0,1,2.232-.571,3.858,3.858,0,0,1,2.487.773,3.507,3.507,0,0,1,1.239,2.18l-1.538.237a2.541,2.541,0,0,0-.782-1.415,2,2,0,0,0-1.345-.475,2.45,2.45,0,0,0-1.942.861,4.05,4.05,0,0,0-.747,2.707,4.2,4.2,0,0,0,.721,2.733,2.345,2.345,0,0,0,1.881.853,2.217,2.217,0,0,0,1.556-.571A2.835,2.835,0,0,0,67.609,9.581Zm2.918-7.646V.115h1.582V1.935Zm0,11.065V3.666h1.582V13Zm4,0V3.666h1.424V4.993A3.355,3.355,0,0,1,78.92,3.455a3.818,3.818,0,0,1,1.547.308,2.409,2.409,0,0,1,1.063.791,3.055,3.055,0,0,1,.492,1.169,9.061,9.061,0,0,1,.088,1.538V13H80.529V7.322a4.22,4.22,0,0,0-.185-1.441,1.492,1.492,0,0,0-.659-.765,2.036,2.036,0,0,0-1.1-.29,2.58,2.58,0,0,0-1.749.642A3.177,3.177,0,0,0,76.108,7.9V13Zm16.11-1.151a5.867,5.867,0,0,1-1.7,1.055,4.853,4.853,0,0,1-1.74.308,3.406,3.406,0,0,1-2.364-.747,2.494,2.494,0,0,1-.826-1.925,2.558,2.558,0,0,1,.308-1.248,2.628,2.628,0,0,1,.817-.914,3.9,3.9,0,0,1,1.143-.519,11.3,11.3,0,0,1,1.406-.237A14.459,14.459,0,0,0,90.5,7.076q.009-.325.009-.413A1.747,1.747,0,0,0,90.065,5.3a2.648,2.648,0,0,0-1.8-.536,2.792,2.792,0,0,0-1.652.4,2.38,2.38,0,0,0-.782,1.38l-1.547-.211a3.8,3.8,0,0,1,.694-1.6,3,3,0,0,1,1.4-.94,6.159,6.159,0,0,1,2.118-.334,5.607,5.607,0,0,1,1.942.281,2.537,2.537,0,0,1,1.1.712,2.454,2.454,0,0,1,.492,1.072A8.911,8.911,0,0,1,92.1,6.979V9.089a23.516,23.516,0,0,0,.1,2.795A3.606,3.606,0,0,0,92.6,13H90.952A3.356,3.356,0,0,1,90.636,11.849ZM90.5,8.315a11.606,11.606,0,0,1-2.584.6,5.978,5.978,0,0,0-1.38.316,1.366,1.366,0,0,0-.624.519,1.329,1.329,0,0,0-.22.747,1.353,1.353,0,0,0,.475,1.055,2.078,2.078,0,0,0,1.406.422,3.292,3.292,0,0,0,1.626-.4,2.487,2.487,0,0,0,1.046-1.1A3.822,3.822,0,0,0,90.5,8.9Zm3.428,1.9L95.5,9.968a2.2,2.2,0,0,0,.729,1.441,2.576,2.576,0,0,0,1.688.5,2.491,2.491,0,0,0,1.617-.439,1.34,1.34,0,0,0,.527-1.046.961.961,0,0,0-.466-.844,6.863,6.863,0,0,0-1.617-.536,15.373,15.373,0,0,1-2.417-.756,2.409,2.409,0,0,1-1.02-.888,2.486,2.486,0,0,1-.062-2.408,2.591,2.591,0,0,1,.782-.888,3.2,3.2,0,0,1,1-.457,4.729,4.729,0,0,1,1.371-.193,5.366,5.366,0,0,1,1.925.316,2.607,2.607,0,0,1,1.23.861,3.3,3.3,0,0,1,.545,1.441l-1.547.211A1.685,1.685,0,0,0,99.17,5.16a2.215,2.215,0,0,0-1.424-.4,2.587,2.587,0,0,0-1.556.36,1.049,1.049,0,0,0-.466.844.873.873,0,0,0,.193.554,1.4,1.4,0,0,0,.606.422q.237.088,1.4.4a18.442,18.442,0,0,1,2.338.738,2.346,2.346,0,0,1,1.046.826,2.318,2.318,0,0,1,.378,1.354,2.656,2.656,0,0,1-.466,1.494,2.994,2.994,0,0,1-1.327,1.081,4.895,4.895,0,0,1-1.969.378,4.406,4.406,0,0,1-2.777-.756A3.524,3.524,0,0,1,93.932,10.214Z" transform="translate(462.554 150.334)"/>
    <path id="Path_48" data-name="Path 48" class="cls-3" d="M26.44,1.58a5.634,5.634,0,0,1,0,7.58l-3.5,3.739,1.619,1.744a.566.566,0,0,1,0,.772l-3.269,3.521a.474.474,0,0,1-.717,0l-1.635-1.761L9.545,27.287a1.9,1.9,0,0,1-1.4.62H4.983L1,30.053,0,28.98l1.993-4.293v-3.4a2.2,2.2,0,0,1,.576-1.509L11.958,9.662,10.323,7.9a.566.566,0,0,1,0-.772l3.27-3.521a.474.474,0,0,1,.717,0l1.619,1.744L19.4,1.578a4.712,4.712,0,0,1,7.038,0ZM7.973,24.687l8.969-9.659-2.99-3.22L4.984,21.468v3.22Z" transform="translate(519.236 106.193)"/>
    <path id="Path_49" data-name="Path 49" class="cls-3" d="M32.848,13V.115h4.86a11.736,11.736,0,0,1,1.96.123,3.844,3.844,0,0,1,1.591.606,3.092,3.092,0,0,1,1.028,1.239,3.91,3.91,0,0,1,.4,1.758,3.976,3.976,0,0,1-1.046,2.786q-1.046,1.134-3.779,1.134h-3.3V13Zm1.7-6.759h3.331a3.533,3.533,0,0,0,2.347-.615,2.192,2.192,0,0,0,.694-1.731,2.292,2.292,0,0,0-.413-1.38A1.884,1.884,0,0,0,39.44,1.75a7.287,7.287,0,0,0-1.591-.114h-3.3Zm16.19,5.607a5.869,5.869,0,0,1-1.7,1.055,4.853,4.853,0,0,1-1.74.308,3.407,3.407,0,0,1-2.364-.747,2.494,2.494,0,0,1-.826-1.925,2.559,2.559,0,0,1,.308-1.248,2.629,2.629,0,0,1,.817-.914,3.9,3.9,0,0,1,1.143-.519,11.308,11.308,0,0,1,1.406-.237,14.459,14.459,0,0,0,2.821-.545q.009-.325.009-.413A1.747,1.747,0,0,0,50.171,5.3a2.648,2.648,0,0,0-1.8-.536,2.791,2.791,0,0,0-1.652.4,2.379,2.379,0,0,0-.782,1.38l-1.547-.211a3.8,3.8,0,0,1,.694-1.6,3,3,0,0,1,1.4-.94A6.159,6.159,0,0,1,48.6,3.455a5.606,5.606,0,0,1,1.942.281,2.537,2.537,0,0,1,1.1.712,2.456,2.456,0,0,1,.492,1.072,8.912,8.912,0,0,1,.079,1.459V9.089a23.548,23.548,0,0,0,.1,2.795,3.608,3.608,0,0,0,.4,1.116H51.059A3.354,3.354,0,0,1,50.742,11.849Zm-.132-3.533a11.607,11.607,0,0,1-2.584.6,5.976,5.976,0,0,0-1.38.316,1.366,1.366,0,0,0-.624.519,1.33,1.33,0,0,0-.22.747,1.353,1.353,0,0,0,.475,1.055,2.079,2.079,0,0,0,1.406.422,3.292,3.292,0,0,0,1.626-.4,2.488,2.488,0,0,0,1.046-1.1A3.822,3.822,0,0,0,50.611,8.9ZM60.762,9.581l1.556.2a4.044,4.044,0,0,1-1.31,2.523,3.8,3.8,0,0,1-2.575.905,4.029,4.029,0,0,1-3.085-1.248,5.11,5.11,0,0,1-1.16-3.595,6.5,6.5,0,0,1,.5-2.646,3.476,3.476,0,0,1,1.521-1.7,4.521,4.521,0,0,1,2.232-.571,3.858,3.858,0,0,1,2.487.773,3.508,3.508,0,0,1,1.239,2.18l-1.538.237a2.541,2.541,0,0,0-.782-1.415A2,2,0,0,0,58.5,4.756a2.45,2.45,0,0,0-1.942.861,4.05,4.05,0,0,0-.747,2.707,4.2,4.2,0,0,0,.721,2.733,2.345,2.345,0,0,0,1.881.853,2.217,2.217,0,0,0,1.556-.571A2.835,2.835,0,0,0,60.762,9.581ZM63.68,1.935V.115h1.582V1.935ZM63.68,13V3.666h1.582V13ZM74.069,9.994l1.635.2a3.988,3.988,0,0,1-1.433,2.224,4.867,4.867,0,0,1-5.924-.466,4.955,4.955,0,0,1-1.2-3.542,5.158,5.158,0,0,1,1.213-3.656,4.105,4.105,0,0,1,3.146-1.3A3.99,3.99,0,0,1,74.57,4.729a5.064,5.064,0,0,1,1.187,3.586q0,.141-.009.422H68.786a3.587,3.587,0,0,0,.87,2.356,2.59,2.59,0,0,0,1.951.817,2.421,2.421,0,0,0,1.485-.457A3.035,3.035,0,0,0,74.069,9.994ZM68.874,7.437h5.212a3.162,3.162,0,0,0-.6-1.767,2.425,2.425,0,0,0-1.96-.914,2.528,2.528,0,0,0-1.837.729A2.9,2.9,0,0,0,68.874,7.437ZM77.7,13V3.666h1.424V4.993a3.355,3.355,0,0,1,2.971-1.538,3.817,3.817,0,0,1,1.547.308,2.409,2.409,0,0,1,1.063.791A3.052,3.052,0,0,1,85.2,5.723a9.058,9.058,0,0,1,.088,1.538V13H83.7V7.322a4.223,4.223,0,0,0-.185-1.441,1.492,1.492,0,0,0-.659-.765,2.036,2.036,0,0,0-1.1-.29,2.58,2.58,0,0,0-1.749.642A3.177,3.177,0,0,0,79.281,7.9V13Zm13.474-1.415.229,1.4a5.865,5.865,0,0,1-1.2.141,2.707,2.707,0,0,1-1.336-.272,1.53,1.53,0,0,1-.668-.712,5.709,5.709,0,0,1-.193-1.872V4.9h-1.16V3.666h1.16V1.354L89.581.405V3.666h1.591V4.9H89.581v5.458a2.9,2.9,0,0,0,.079.87.691.691,0,0,0,.272.308,1.078,1.078,0,0,0,.545.114A5.148,5.148,0,0,0,91.172,11.585Zm7.945-1.591,1.635.2A3.988,3.988,0,0,1,99.32,12.42a4.867,4.867,0,0,1-5.924-.466,4.955,4.955,0,0,1-1.2-3.542,5.158,5.158,0,0,1,1.213-3.656,4.106,4.106,0,0,1,3.146-1.3,3.991,3.991,0,0,1,3.059,1.274,5.066,5.066,0,0,1,1.187,3.586q0,.141-.009.422H93.835a3.587,3.587,0,0,0,.87,2.356,2.59,2.59,0,0,0,1.951.817,2.421,2.421,0,0,0,1.485-.457A3.033,3.033,0,0,0,99.117,9.994ZM93.923,7.437h5.212a3.162,3.162,0,0,0-.6-1.767,2.425,2.425,0,0,0-1.96-.914,2.528,2.528,0,0,0-1.837.729A2.9,2.9,0,0,0,93.923,7.437Zm8.191,2.777,1.565-.246a2.2,2.2,0,0,0,.729,1.441,2.578,2.578,0,0,0,1.688.5,2.49,2.49,0,0,0,1.617-.439,1.338,1.338,0,0,0,.527-1.046.961.961,0,0,0-.465-.844,6.865,6.865,0,0,0-1.618-.536,15.406,15.406,0,0,1-2.417-.756,2.407,2.407,0,0,1-1.019-.888,2.486,2.486,0,0,1-.062-2.408,2.591,2.591,0,0,1,.783-.888,3.2,3.2,0,0,1,1-.457,4.721,4.721,0,0,1,1.371-.193,5.36,5.36,0,0,1,1.924.316,2.61,2.61,0,0,1,1.231.861,3.315,3.315,0,0,1,.545,1.441l-1.547.211a1.683,1.683,0,0,0-.615-1.125,2.216,2.216,0,0,0-1.424-.4,2.588,2.588,0,0,0-1.556.36,1.051,1.051,0,0,0-.466.844.873.873,0,0,0,.194.554,1.4,1.4,0,0,0,.606.422q.237.088,1.4.4a18.479,18.479,0,0,1,2.338.738,2.211,2.211,0,0,1,1.423,2.18,2.663,2.663,0,0,1-.465,1.494,2.992,2.992,0,0,1-1.328,1.081,4.892,4.892,0,0,1-1.968.378,4.408,4.408,0,0,1-2.778-.756A3.529,3.529,0,0,1,102.114,10.214Z" transform="translate(321.284 150.334)"/>
    <path id="Path_50" data-name="Path 50" class="cls-3" d="M13.982,6.731c0,2.191-1.039,4.793-3.352,4.793-2.9,0-4.66-3.991-4.66-6.731C5.969,2.6,7.009,0,9.322,0,12.244,0,13.982,3.991,13.982,6.731Zm-6.13,9.451c0,1.9-.914,3.874-2.887,3.874C2.1,20.056,0,16.22,0,13.384c0-1.9.932-3.893,2.887-3.893,2.868,0,4.965,3.854,4.965,6.692Zm7.063-.528c4.392,0,10.326,6.907,10.326,11.524,0,2.485-1.864,2.876-3.693,2.876-2.4,0-4.338-1.761-6.633-1.761-2.4,0-4.446,1.742-7.045,1.742-1.739,0-3.28-.646-3.28-2.856,0-4.637,5.934-11.524,10.326-11.524ZM19.2,11.524c-2.313,0-3.352-2.6-3.352-4.793,0-2.74,1.739-6.731,4.66-6.731,2.313,0,3.352,2.6,3.352,4.794C23.859,7.533,22.1,11.524,19.2,11.524Zm7.744-2.035c1.954,0,2.887,2,2.887,3.893,0,2.838-2.1,6.672-4.965,6.672-1.972,0-2.887-1.976-2.887-3.874,0-2.838,2.1-6.692,4.965-6.692Z" transform="translate(377.094 106.193)"/>
    <path id="Path_51" data-name="Path 51" class="cls-3" d="M45.478,13V1.636H41.233V.115H51.445V1.636H47.183V13ZM58.45,13V11.629a3.416,3.416,0,0,1-2.962,1.582,3.8,3.8,0,0,1-1.547-.316,2.6,2.6,0,0,1-1.063-.791,3.062,3.062,0,0,1-.483-1.178,8.039,8.039,0,0,1-.1-1.477V3.666H53.88V8.843a9.22,9.22,0,0,0,.1,1.67,1.669,1.669,0,0,0,.633.984,1.978,1.978,0,0,0,1.2.352,2.628,2.628,0,0,0,1.336-.36,2.03,2.03,0,0,0,.879-.993,4.943,4.943,0,0,0,.264-1.828v-5h1.582V13Zm7.356-1.415.229,1.4a5.866,5.866,0,0,1-1.2.141,2.706,2.706,0,0,1-1.336-.272,1.531,1.531,0,0,1-.668-.712,5.71,5.71,0,0,1-.193-1.872V4.9h-1.16V3.666h1.16V1.354L64.216.405V3.666h1.591V4.9H64.216v5.458a2.9,2.9,0,0,0,.079.87.691.691,0,0,0,.272.308,1.077,1.077,0,0,0,.545.114A5.147,5.147,0,0,0,65.807,11.585Zm.967-3.252a4.811,4.811,0,0,1,1.441-3.841,4.344,4.344,0,0,1,2.936-1.037A4.18,4.18,0,0,1,74.3,4.721,4.783,4.783,0,0,1,75.519,8.2a6.16,6.16,0,0,1-.545,2.839,3.8,3.8,0,0,1-1.573,1.6,4.556,4.556,0,0,1-2.25.571,4.21,4.21,0,0,1-3.173-1.257A5.032,5.032,0,0,1,66.774,8.333Zm1.626,0a3.994,3.994,0,0,0,.782,2.689,2.609,2.609,0,0,0,3.929-.009,4.07,4.07,0,0,0,.782-2.733A3.825,3.825,0,0,0,73.1,5.661a2.484,2.484,0,0,0-1.951-.9,2.513,2.513,0,0,0-1.969.888A3.958,3.958,0,0,0,68.4,8.333ZM77.365,13V3.666h1.424V5.081a3.9,3.9,0,0,1,1-1.31,1.777,1.777,0,0,1,1.02-.316,3.085,3.085,0,0,1,1.626.51l-.545,1.468a2.263,2.263,0,0,0-1.16-.343,1.493,1.493,0,0,0-.932.316,1.665,1.665,0,0,0-.589.861,6.162,6.162,0,0,0-.264,1.846V13Zm12.4-3.006,1.635.2a3.988,3.988,0,0,1-1.433,2.224,4.867,4.867,0,0,1-5.924-.466,4.956,4.956,0,0,1-1.2-3.542,5.158,5.158,0,0,1,1.213-3.656,4.106,4.106,0,0,1,3.146-1.3,3.99,3.99,0,0,1,3.059,1.274,5.064,5.064,0,0,1,1.187,3.586q0,.141-.009.422H84.484a3.587,3.587,0,0,0,.87,2.356,2.59,2.59,0,0,0,1.951.817,2.42,2.42,0,0,0,1.485-.457A3.033,3.033,0,0,0,89.766,9.994ZM84.572,7.437h5.212a3.161,3.161,0,0,0-.6-1.767,2.425,2.425,0,0,0-1.96-.914,2.528,2.528,0,0,0-1.837.729A2.9,2.9,0,0,0,84.572,7.437Zm8.191,2.777,1.564-.246a2.2,2.2,0,0,0,.729,1.441,2.576,2.576,0,0,0,1.688.5,2.49,2.49,0,0,0,1.617-.439,1.34,1.34,0,0,0,.527-1.046.961.961,0,0,0-.466-.844,6.859,6.859,0,0,0-1.617-.536,15.366,15.366,0,0,1-2.417-.756,2.409,2.409,0,0,1-1.02-.888,2.486,2.486,0,0,1-.062-2.408,2.592,2.592,0,0,1,.782-.888,3.2,3.2,0,0,1,1-.457,4.728,4.728,0,0,1,1.371-.193,5.366,5.366,0,0,1,1.925.316,2.609,2.609,0,0,1,1.23.861,3.307,3.307,0,0,1,.545,1.441l-1.547.211A1.685,1.685,0,0,0,98,5.16a2.215,2.215,0,0,0-1.424-.4,2.586,2.586,0,0,0-1.556.36,1.049,1.049,0,0,0-.466.844.873.873,0,0,0,.193.554,1.4,1.4,0,0,0,.606.422q.237.088,1.4.4a18.431,18.431,0,0,1,2.338.738,2.345,2.345,0,0,1,1.046.826,2.318,2.318,0,0,1,.378,1.354,2.656,2.656,0,0,1-.466,1.494,2.992,2.992,0,0,1-1.327,1.081,4.9,4.9,0,0,1-1.969.378,4.405,4.405,0,0,1-2.777-.756A3.524,3.524,0,0,1,92.763,10.214Z" transform="translate(180.142 150.334)"/>
    <path id="Path_52" data-name="Path 52" class="cls-3" d="M23.254,24.868c0,2.856-1.744,5.185-3.869,5.185H3.87C1.744,30.053,0,27.726,0,24.868c0-5.145,1.181-11.093,5.94-11.093a7.709,7.709,0,0,0,11.374,0C22.074,13.774,23.254,19.722,23.254,24.868ZM18.6,7.513a7.262,7.262,0,0,1-6.976,7.513A7.262,7.262,0,0,1,4.651,7.513,7.262,7.262,0,0,1,11.627,0,7.262,7.262,0,0,1,18.6,7.513Z" transform="translate(238.441 106.193)"/>
    <path id="Path_53" data-name="Path 53" class="cls-3" d="M47.359,13V.115h4.86a11.736,11.736,0,0,1,1.96.123A3.844,3.844,0,0,1,55.77.845,3.091,3.091,0,0,1,56.8,2.084a3.91,3.91,0,0,1,.4,1.758,3.977,3.977,0,0,1-1.046,2.786Q55.1,7.762,52.368,7.762h-3.3V13Zm1.705-6.759h3.331a3.533,3.533,0,0,0,2.347-.615,2.192,2.192,0,0,0,.694-1.731,2.292,2.292,0,0,0-.413-1.38A1.885,1.885,0,0,0,53.95,1.75a7.285,7.285,0,0,0-1.591-.114h-3.3Zm16.189,5.607a5.866,5.866,0,0,1-1.7,1.055,4.852,4.852,0,0,1-1.74.308,3.407,3.407,0,0,1-2.364-.747,2.494,2.494,0,0,1-.826-1.925,2.558,2.558,0,0,1,.308-1.248,2.628,2.628,0,0,1,.817-.914,3.9,3.9,0,0,1,1.143-.519A11.3,11.3,0,0,1,62.3,7.621a14.46,14.46,0,0,0,2.821-.545q.009-.325.009-.413A1.746,1.746,0,0,0,64.682,5.3a2.647,2.647,0,0,0-1.8-.536,2.791,2.791,0,0,0-1.652.4,2.38,2.38,0,0,0-.782,1.38L58.9,6.329a3.8,3.8,0,0,1,.694-1.6,3,3,0,0,1,1.4-.94,6.159,6.159,0,0,1,2.118-.334,5.607,5.607,0,0,1,1.942.281,2.537,2.537,0,0,1,1.1.712,2.455,2.455,0,0,1,.492,1.072,8.911,8.911,0,0,1,.079,1.459V9.089a23.516,23.516,0,0,0,.1,2.795,3.606,3.606,0,0,0,.4,1.116H65.57A3.356,3.356,0,0,1,65.253,11.849Zm-.132-3.533a11.608,11.608,0,0,1-2.584.6,5.978,5.978,0,0,0-1.38.316,1.366,1.366,0,0,0-.624.519,1.329,1.329,0,0,0-.22.747,1.353,1.353,0,0,0,.475,1.055,2.078,2.078,0,0,0,1.406.422,3.292,3.292,0,0,0,1.626-.4,2.487,2.487,0,0,0,1.046-1.1A3.822,3.822,0,0,0,65.121,8.9Zm4.069-6.381V.115h1.582V1.935Zm0,11.065V3.666h1.582V13Zm4,0V3.666h1.424V4.993a3.355,3.355,0,0,1,2.971-1.538,3.818,3.818,0,0,1,1.547.308,2.408,2.408,0,0,1,1.063.791,3.052,3.052,0,0,1,.492,1.169,9.058,9.058,0,0,1,.088,1.538V13H79.193V7.322a4.22,4.22,0,0,0-.185-1.441,1.492,1.492,0,0,0-.659-.765,2.036,2.036,0,0,0-1.1-.29,2.58,2.58,0,0,0-1.749.642A3.177,3.177,0,0,0,74.772,7.9V13ZM89.6,9.994l1.635.2A3.988,3.988,0,0,1,89.8,12.42a4.867,4.867,0,0,1-5.924-.466,4.955,4.955,0,0,1-1.2-3.542,5.158,5.158,0,0,1,1.213-3.656,4.106,4.106,0,0,1,3.146-1.3A3.99,3.99,0,0,1,90.1,4.729a5.064,5.064,0,0,1,1.187,3.586q0,.141-.009.422H84.317a3.587,3.587,0,0,0,.87,2.356,2.59,2.59,0,0,0,1.951.817,2.42,2.42,0,0,0,1.485-.457A3.033,3.033,0,0,0,89.6,9.994ZM84.4,7.437h5.212a3.162,3.162,0,0,0-.6-1.767,2.425,2.425,0,0,0-1.96-.914,2.528,2.528,0,0,0-1.837.729A2.9,2.9,0,0,0,84.4,7.437ZM93.194,13V.115h1.582V13Z" transform="translate(38 150.334)"/>
    <path id="Path_54" data-name="Path 54" class="cls-3" d="M30.059,17.313V28.555a1.458,1.458,0,0,1-1.392,1.5H20.316V21.06H14.75v8.993H6.4a1.458,1.458,0,0,1-1.392-1.5V17.313c0-.046.022-.094.022-.141l12.5-11.1,12.5,11.1A.312.312,0,0,1,30.059,17.313ZM34.908,15.7,33.559,17.43a.708.708,0,0,1-.457.258h-.065a.652.652,0,0,1-.457-.163L17.532,4.01,2.482,17.524a.7.7,0,0,1-.522.163A.709.709,0,0,1,1.5,17.43L.155,15.7a.808.808,0,0,1,.088-1.054L15.878.615a2.528,2.528,0,0,1,3.305,0L24.49,5.392V.825a.715.715,0,0,1,.7-.749h4.175a.715.715,0,0,1,.7.749V10.38l4.763,4.263A.811.811,0,0,1,34.908,15.7Z" transform="translate(91.194 106.193)"/>
    <path id="Path_55" data-name="Path 55" class="cls-6" d="M0,10A10,10,0,0,1,10,0H982a10,10,0,0,1,10,10V43.5H0Z" transform="translate(40 32.071)"/>
    <circle id="Ellipse_1" data-name="Ellipse 1" class="cls-7" cx="7.5" cy="7.5" r="7.5" transform="translate(55 46.383)"/>
    <circle id="Ellipse_2" data-name="Ellipse 2" class="cls-7" cx="7.5" cy="7.5" r="7.5" transform="translate(80 46.383)"/>
    <circle id="Ellipse_3" data-name="Ellipse 3" class="cls-7" cx="7.5" cy="7.5" r="7.5" transform="translate(105 46.383)"/>
    <path id="Path_56" data-name="Path 56" class="cls-8" d="M205,0H12L.211,32.051H217.5Z" transform="translate(135 43.946)"/>
    <path id="Path_57" data-name="Path 57" class="cls-9" d="M7.055,4.988l1.137.287A3.834,3.834,0,0,1,6.9,7.414a3.541,3.541,0,0,1-2.268.732,4.112,4.112,0,0,1-2.262-.562A3.573,3.573,0,0,1,1.049,5.943,5.876,5.876,0,0,1,.6,3.641,5.068,5.068,0,0,1,1.107,1.3,3.513,3.513,0,0,1,2.566-.215,4.26,4.26,0,0,1,4.652-.736,3.521,3.521,0,0,1,6.82-.08,3.408,3.408,0,0,1,8.045,1.766l-1.119.264A2.655,2.655,0,0,0,6.059.664,2.311,2.311,0,0,0,4.629.236,2.791,2.791,0,0,0,2.971.711a2.512,2.512,0,0,0-.932,1.277,5.1,5.1,0,0,0-.27,1.646,5.309,5.309,0,0,0,.316,1.916,2.394,2.394,0,0,0,1,1.219,2.785,2.785,0,0,0,1.459.4,2.445,2.445,0,0,0,1.617-.551A2.819,2.819,0,0,0,7.055,4.988Zm2.016-.1a3.208,3.208,0,0,1,.961-2.561,2.9,2.9,0,0,1,1.957-.691,2.787,2.787,0,0,1,2.1.844A3.188,3.188,0,0,1,14.9,4.8a4.107,4.107,0,0,1-.363,1.893A2.533,2.533,0,0,1,13.488,7.76a3.038,3.038,0,0,1-1.5.381A2.807,2.807,0,0,1,9.873,7.3,3.354,3.354,0,0,1,9.07,4.889Zm1.084,0a2.662,2.662,0,0,0,.522,1.793,1.739,1.739,0,0,0,2.619-.006,2.713,2.713,0,0,0,.521-1.822,2.55,2.55,0,0,0-.527-1.746,1.656,1.656,0,0,0-1.3-.6,1.675,1.675,0,0,0-1.312.592A2.638,2.638,0,0,0,10.154,4.889ZM16.143,8V1.777h.949v.885a2.237,2.237,0,0,1,1.98-1.025,2.545,2.545,0,0,1,1.031.205,1.606,1.606,0,0,1,.709.527,2.035,2.035,0,0,1,.328.779A6.035,6.035,0,0,1,21.2,4.174V8H20.145V4.215a2.815,2.815,0,0,0-.123-.961,1,1,0,0,0-.439-.51,1.357,1.357,0,0,0-.732-.193,1.72,1.72,0,0,0-1.166.428A2.118,2.118,0,0,0,17.2,4.6V8ZM22.4,6.143l1.043-.164a1.464,1.464,0,0,0,.486.961,1.717,1.717,0,0,0,1.125.334,1.66,1.66,0,0,0,1.078-.293.893.893,0,0,0,.352-.7.64.64,0,0,0-.311-.562A4.574,4.574,0,0,0,25.1,5.363a10.249,10.249,0,0,1-1.611-.5,1.606,1.606,0,0,1-.68-.592,1.657,1.657,0,0,1-.041-1.605,1.727,1.727,0,0,1,.521-.592,2.132,2.132,0,0,1,.668-.3,3.153,3.153,0,0,1,.914-.129,3.577,3.577,0,0,1,1.283.211,1.739,1.739,0,0,1,.82.574,2.209,2.209,0,0,1,.363.961L26.3,3.523a1.123,1.123,0,0,0-.41-.75,1.477,1.477,0,0,0-.949-.27,1.725,1.725,0,0,0-1.037.24.7.7,0,0,0-.311.563.582.582,0,0,0,.129.369.93.93,0,0,0,.4.281q.158.059.932.27a12.286,12.286,0,0,1,1.559.492,1.563,1.563,0,0,1,.7.551,1.545,1.545,0,0,1,.252.9,1.773,1.773,0,0,1-.311,1,1.994,1.994,0,0,1-.885.721,3.264,3.264,0,0,1-1.312.252,2.937,2.937,0,0,1-1.851-.5A2.349,2.349,0,0,1,22.4,6.143ZM32.9,8V7.086a2.278,2.278,0,0,1-1.975,1.055,2.537,2.537,0,0,1-1.031-.211,1.732,1.732,0,0,1-.709-.527,2.041,2.041,0,0,1-.322-.785,5.352,5.352,0,0,1-.065-.984V1.777h1.055V5.229a6.146,6.146,0,0,0,.064,1.113A1.113,1.113,0,0,0,30.34,7a1.319,1.319,0,0,0,.8.234,1.752,1.752,0,0,0,.891-.24,1.353,1.353,0,0,0,.586-.662,3.3,3.3,0,0,0,.176-1.219V1.777h1.055V8Zm2.578,0V-.59h1.055V8Zm5-.943.152.932a3.912,3.912,0,0,1-.8.094,1.8,1.8,0,0,1-.891-.182,1.02,1.02,0,0,1-.445-.475,3.807,3.807,0,0,1-.129-1.248V2.6h-.773v-.82h.773V.236L39.416-.4V1.777h1.061V2.6H39.416V6.236a1.933,1.933,0,0,0,.053.58.461.461,0,0,0,.182.205.718.718,0,0,0,.363.076A3.432,3.432,0,0,0,40.477,7.057Zm5.1.176a3.913,3.913,0,0,1-1.131.7,3.236,3.236,0,0,1-1.16.205,2.271,2.271,0,0,1-1.576-.5,1.663,1.663,0,0,1-.551-1.283,1.706,1.706,0,0,1,.205-.832,1.754,1.754,0,0,1,.545-.609,2.6,2.6,0,0,1,.762-.346,7.533,7.533,0,0,1,.938-.158,9.639,9.639,0,0,0,1.881-.363q.006-.217.006-.275a1.164,1.164,0,0,0-.3-.908,1.765,1.765,0,0,0-1.2-.357,1.861,1.861,0,0,0-1.1.264,1.586,1.586,0,0,0-.521.92l-1.031-.141A2.53,2.53,0,0,1,41.8,2.486a2,2,0,0,1,.932-.627,4.106,4.106,0,0,1,1.412-.223,3.738,3.738,0,0,1,1.295.188,1.692,1.692,0,0,1,.732.475,1.637,1.637,0,0,1,.328.715,5.935,5.935,0,0,1,.053.973V5.393a15.674,15.674,0,0,0,.064,1.863,2.4,2.4,0,0,0,.27.744h-1.1A2.237,2.237,0,0,1,45.574,7.232Zm-.088-2.355a7.737,7.737,0,0,1-1.723.4,3.983,3.983,0,0,0-.92.211.911.911,0,0,0-.416.346.887.887,0,0,0-.146.5.9.9,0,0,0,.316.7,1.386,1.386,0,0,0,.938.281,2.194,2.194,0,0,0,1.084-.264,1.658,1.658,0,0,0,.7-.732,2.547,2.547,0,0,0,.17-1.055Zm4.922,1.734V4.256H48.07V3.271h2.338V.934h1V3.271h2.338v.984H51.4V6.611Zm8.443,3.914V-.736h.92V10.525Zm12.41-5.537,1.137.287a3.833,3.833,0,0,1-1.289,2.139,3.541,3.541,0,0,1-2.268.732,4.111,4.111,0,0,1-2.262-.562,3.572,3.572,0,0,1-1.324-1.641,5.876,5.876,0,0,1-.451-2.3,5.067,5.067,0,0,1,.51-2.338A3.513,3.513,0,0,1,66.773-.215a4.261,4.261,0,0,1,2.086-.521,3.521,3.521,0,0,1,2.168.656,3.408,3.408,0,0,1,1.225,1.846l-1.119.264A2.655,2.655,0,0,0,70.266.664a2.311,2.311,0,0,0-1.43-.428,2.791,2.791,0,0,0-1.658.475,2.512,2.512,0,0,0-.932,1.277,5.1,5.1,0,0,0-.27,1.646,5.308,5.308,0,0,0,.316,1.916,2.393,2.393,0,0,0,1,1.219,2.785,2.785,0,0,0,1.459.4,2.445,2.445,0,0,0,1.617-.551A2.819,2.819,0,0,0,71.262,4.988Zm2.016-.1a3.208,3.208,0,0,1,.961-2.561A2.9,2.9,0,0,1,76.2,1.637a2.787,2.787,0,0,1,2.1.844,3.189,3.189,0,0,1,.814,2.32,4.107,4.107,0,0,1-.363,1.893A2.532,2.532,0,0,1,77.7,7.76a3.037,3.037,0,0,1-1.5.381A2.806,2.806,0,0,1,74.08,7.3,3.354,3.354,0,0,1,73.277,4.889Zm1.084,0a2.663,2.663,0,0,0,.521,1.793A1.739,1.739,0,0,0,77.5,6.676a2.714,2.714,0,0,0,.521-1.822A2.549,2.549,0,0,0,77.5,3.107a1.656,1.656,0,0,0-1.3-.6,1.675,1.675,0,0,0-1.312.592A2.639,2.639,0,0,0,74.361,4.889ZM80.35,8V1.777H81.3v.885a2.237,2.237,0,0,1,1.98-1.025,2.545,2.545,0,0,1,1.031.205,1.605,1.605,0,0,1,.709.527,2.035,2.035,0,0,1,.328.779,6.049,6.049,0,0,1,.058,1.025V8H84.352V4.215a2.815,2.815,0,0,0-.123-.961,1,1,0,0,0-.439-.51,1.358,1.358,0,0,0-.732-.193,1.72,1.72,0,0,0-1.166.428A2.118,2.118,0,0,0,81.4,4.6V8Zm6.258-1.857,1.043-.164a1.464,1.464,0,0,0,.486.961,1.717,1.717,0,0,0,1.125.334A1.66,1.66,0,0,0,90.34,6.98a.893.893,0,0,0,.352-.7.641.641,0,0,0-.311-.562A4.575,4.575,0,0,0,89.3,5.363a10.249,10.249,0,0,1-1.611-.5,1.606,1.606,0,0,1-.68-.592,1.657,1.657,0,0,1-.041-1.605,1.727,1.727,0,0,1,.521-.592,2.132,2.132,0,0,1,.668-.3,3.152,3.152,0,0,1,.914-.129,3.577,3.577,0,0,1,1.283.211,1.739,1.739,0,0,1,.82.574,2.209,2.209,0,0,1,.363.961l-1.031.141a1.123,1.123,0,0,0-.41-.75,1.477,1.477,0,0,0-.949-.27,1.724,1.724,0,0,0-1.037.24.7.7,0,0,0-.311.563.582.582,0,0,0,.129.369.93.93,0,0,0,.4.281q.158.059.932.27a12.291,12.291,0,0,1,1.559.492,1.563,1.563,0,0,1,.7.551,1.545,1.545,0,0,1,.252.9,1.772,1.772,0,0,1-.311,1,2,2,0,0,1-.885.721,3.264,3.264,0,0,1-1.312.252,2.937,2.937,0,0,1-1.852-.5A2.349,2.349,0,0,1,86.607,6.143ZM97.107,8V7.086a2.278,2.278,0,0,1-1.975,1.055A2.537,2.537,0,0,1,94.1,7.93a1.732,1.732,0,0,1-.709-.527,2.04,2.04,0,0,1-.322-.785,5.354,5.354,0,0,1-.064-.984V1.777h1.055V5.229a6.146,6.146,0,0,0,.064,1.113A1.113,1.113,0,0,0,94.547,7a1.318,1.318,0,0,0,.8.234,1.752,1.752,0,0,0,.891-.24,1.353,1.353,0,0,0,.586-.662A3.3,3.3,0,0,0,97,5.111V1.777h1.055V8Zm2.578,0V-.59h1.054V8Zm5-.943.152.932a3.917,3.917,0,0,1-.8.094,1.805,1.805,0,0,1-.891-.182,1.024,1.024,0,0,1-.445-.475,3.8,3.8,0,0,1-.129-1.248V2.6H101.8v-.82h.773V.236L103.623-.4V1.777h1.061V2.6h-1.061V6.236a1.938,1.938,0,0,0,.053.58.46.46,0,0,0,.181.205.72.72,0,0,0,.364.076A3.443,3.443,0,0,0,104.684,7.057Zm5.1.176a3.9,3.9,0,0,1-1.131.7,3.233,3.233,0,0,1-1.16.205,2.271,2.271,0,0,1-1.576-.5,1.663,1.663,0,0,1-.551-1.283,1.713,1.713,0,0,1,.205-.832,1.763,1.763,0,0,1,.545-.609,2.612,2.612,0,0,1,.762-.346,7.556,7.556,0,0,1,.937-.158,9.629,9.629,0,0,0,1.881-.363q.006-.217.006-.275a1.162,1.162,0,0,0-.3-.908,1.764,1.764,0,0,0-1.2-.357,1.858,1.858,0,0,0-1.1.264,1.582,1.582,0,0,0-.522.92l-1.031-.141a2.532,2.532,0,0,1,.463-1.066,2,2,0,0,1,.931-.627,4.11,4.11,0,0,1,1.413-.223,3.733,3.733,0,0,1,1.294.188,1.686,1.686,0,0,1,.733.475,1.633,1.633,0,0,1,.328.715,5.948,5.948,0,0,1,.053.973V5.393a15.719,15.719,0,0,0,.064,1.863,2.4,2.4,0,0,0,.27.744h-1.1A2.239,2.239,0,0,1,109.781,7.232Zm-.088-2.355a7.728,7.728,0,0,1-1.722.4,3.97,3.97,0,0,0-.92.211.906.906,0,0,0-.416.346.884.884,0,0,0-.147.5.9.9,0,0,0,.317.7,1.385,1.385,0,0,0,.937.281,2.194,2.194,0,0,0,1.084-.264,1.652,1.652,0,0,0,.7-.732,2.536,2.536,0,0,0,.17-1.055Zm2.286,1.266,1.042-.164a1.464,1.464,0,0,0,.487.961,1.715,1.715,0,0,0,1.125.334,1.66,1.66,0,0,0,1.078-.293.894.894,0,0,0,.351-.7.64.64,0,0,0-.31-.562,4.585,4.585,0,0,0-1.078-.357,10.249,10.249,0,0,1-1.612-.5,1.608,1.608,0,0,1-.679-.592,1.654,1.654,0,0,1-.041-1.605,1.735,1.735,0,0,1,.521-.592,2.135,2.135,0,0,1,.668-.3,3.153,3.153,0,0,1,.914-.129,3.582,3.582,0,0,1,1.284.211,1.74,1.74,0,0,1,.82.574,2.2,2.2,0,0,1,.363.961l-1.031.141a1.126,1.126,0,0,0-.41-.75,1.478,1.478,0,0,0-.95-.27,1.725,1.725,0,0,0-1.037.24.7.7,0,0,0-.31.563.582.582,0,0,0,.129.369.927.927,0,0,0,.4.281q.157.059.932.27a12.279,12.279,0,0,1,1.558.492,1.47,1.47,0,0,1,.949,1.453,1.772,1.772,0,0,1-.31,1,1.993,1.993,0,0,1-.885.721,3.263,3.263,0,0,1-1.312.252,2.938,2.938,0,0,1-1.852-.5A2.347,2.347,0,0,1,111.979,6.143Z" transform="translate(155 55.908)"/>
    <ellipse id="Ellipse_4" data-name="Ellipse 4" class="cls-7" cx="2.5" cy="2.719" rx="2.5" ry="2.719" transform="translate(1010 40.946)"/>
    <ellipse id="Ellipse_5" data-name="Ellipse 5" class="cls-7" cx="2.5" cy="2.719" rx="2.5" ry="2.719" transform="translate(1010 48.558)"/>
    <ellipse id="Ellipse_6" data-name="Ellipse 6" class="cls-7" cx="2.5" cy="2.719" rx="2.5" ry="2.719" transform="translate(1010 56.17)"/>
  </g>
</svg>
