<svg width="341" height="255" viewBox="0 0 341 255" fill="none" xmlns="http://www.w3.org/2000/svg">
<path d="M9.46423e-07 -6.19835e-06H73.8398V34.7194H9.46423e-07V-6.19835e-06Z" transform="translate(146.387 203.872)" fill="#F0F1F3"/>
<path d="M8.60524 1.54959e-06H99.6562C104.375 1.54959e-06 108.261 3.88865 108.261 8.61019C108.261 13.3317 104.375 17.2204 99.6562 17.2204H8.60524C3.88642 17.2204 1.46265e-06 13.3317 1.46265e-06 8.61019C1.46265e-06 3.88865 3.88642 1.54959e-06 8.60524 1.54959e-06Z" transform="translate(129.177 237.591)" fill="#F0F1F3"/>
<path d="M13.0464 1.12991e-07H264.546C271.764 1.12991e-07 277.593 5.83299 277.593 13.0546V188.317C277.593 195.539 6.39392e-08 195.539 6.39392e-08 188.317V13.0546C-0.000704763 5.83299 5.82892 1.12991e-07 13.0464 1.12991e-07Z" transform="translate(42.2906)" fill="#343441"/>
<path d="M-2.25851e-07 5.59573e-07H251.5V147.487H-2.25851e-07V5.59573e-07Z" transform="translate(55.3367 13.0546)" fill="#F7F8FF"/>
<path d="M9.46423e-07 -6.19835e-06H73.8398V13.0546H9.46423e-07V-6.19835e-06Z" transform="translate(146.387 203.872)" fill="#E6E7E8"/>
<path d="M0 17.2204C0 24.442 5.82963 30.275 13.0471 30.275H264.547C271.765 30.275 277.594 24.442 277.594 17.2204V7.74793e-06H0V17.2204Z" transform="translate(42.2896 173.874)" fill="#F0F1F3"/>
<path d="M4.96166 0H69.4625C72.1914 0 74.4242 2.23143 74.4242 4.95872V100.826C74.4242 103.554 72.1914 105.785 69.4625 105.785H4.96166C2.23276 105.785 2.69119e-07 103.554 2.69119e-07 100.826V4.95872C2.69119e-07 2.23143 2.23276 0 4.96166 0Z" transform="translate(0 149)" fill="#343441"/>
<path d="M1.65388 -3.58612e-07H62.847C63.7566 -3.58612e-07 64.5009 0.74388 64.5009 1.6529V74.3801C64.5009 75.2891 63.7566 76.033 62.847 76.033H1.65388C0.744321 76.033 -3.07564e-07 75.2891 -3.07564e-07 74.3801V1.6529C0.000209656 0.74388 0.744321 -3.58612e-07 1.65388 -3.58612e-07Z" transform="translate(4.96143 163.876)" fill="#F7F8FF"/>
<path d="M4.13461 88.4297C6.45009 88.4297 8.26922 90.248 8.26922 92.5619C8.26922 94.876 6.44988 96.694 4.13461 96.694C1.81913 96.694 -1.00704e-06 94.8758 -1.00704e-06 92.5619C-0.000210971 90.2478 1.81913 88.4297 4.13461 88.4297ZM4.13461 5.12303e-08C5.04417 5.12303e-08 5.78849 0.743881 5.78849 1.65291C5.78849 2.56193 5.04417 3.30581 4.13461 3.30581C3.22504 3.30581 2.48072 2.56193 2.48072 1.65291C2.48072 0.743881 3.22483 5.12303e-08 4.13461 5.12303e-08Z" transform="translate(33.0775 154.785)" fill="#6D6A7E"/>
<path d="M6.62608 0H39.7561C43.4005 0 46.3822 2.97519 46.3822 6.61162V78.0165C46.3822 81.6529 43.4005 84.6281 39.7561 84.6281H6.62608C2.98169 84.6281 -6.16108e-07 81.6529 -6.16108e-07 78.0165V6.61162C-6.16108e-07 2.97519 2.98186 0 6.62608 0Z" transform="translate(294.618 170.372)" fill="#343441"/>
<path d="M1.32521 -2.8689e-07H37.1055C37.8343 -2.8689e-07 38.4307 0.595104 38.4307 1.32232V59.5041C38.4307 60.2313 37.8343 60.8264 37.1055 60.8264H1.32521C0.596406 60.8264 5.61117e-08 60.2313 5.61117e-08 59.5041V1.32232C-0.000168182 0.595104 0.596406 -2.8689e-07 1.32521 -2.8689e-07Z" transform="translate(298.594 182.273)" fill="#F7F8FF"/>
<path d="M5.30103 70.7438C7.15636 70.7438 8.61398 72.1984 8.61398 74.0495C8.61398 75.9008 7.1562 77.3552 5.30103 77.3552C3.44569 77.3552 1.98808 75.9006 1.98808 74.0495C1.98791 72.1982 3.44553 70.7438 5.30103 70.7438ZM1.32522 4.09843e-08H9.2765C10.0053 4.09843e-08 10.6017 0.595105 10.6017 1.32232C10.6017 2.04954 10.0053 2.64465 9.2765 2.64465H1.32522C0.596406 2.64465 1.43759e-07 2.04954 1.43759e-07 1.32232C1.43759e-07 0.595105 0.596406 4.09843e-08 1.32522 4.09843e-08Z" transform="translate(312.508 175)" fill="#6D6A7E"/>
</svg>
