<svg id="Layer_1" data-name="Layer 1" xmlns="http://www.w3.org/2000/svg" viewBox="0 0 178.05 48">
  <defs>
    <style>
      .cls-1{fill:#fff}.cls-2{fill:#66f}
    </style>
  </defs>
  <path class="cls-1" d="M44 15h-8.49A14.2 14.2 0 0 0 33 12.49V4a4 4 0 0 0-4-4H19a4 4 0 0 0-4 4v8.49A14.2 14.2 0 0 0 12.49 15H4a4 4 0 0 0-4 4v10a4 4 0 0 0 4 4h8.49A14.2 14.2 0 0 0 15 35.51V44a4 4 0 0 0 4 4h10a4 4 0 0 0 4-4v-8.49A14.2 14.2 0 0 0 35.51 33H44a4 4 0 0 0 4-4V19a4 4 0 0 0-4-4z"/>
  <path class="cls-2" d="M24 11.44A12.56 12.56 0 1 0 36.56 24 12.57 12.57 0 0 0 24 11.44zm0 24h-.21v-.55a.52.52 0 0 1 .32-.47l2.26-.85a1.7 1.7 0 0 0 1.5-.74 5.39 5.39 0 0 1 .58-.86.35.35 0 0 0 0-.49 4.86 4.86 0 0 1-1.47-2.18c-.12-1-1.53-1.82-3.36-1.94a2.9 2.9 0 0 1-1-2c0-.19-.16-.39-.35-.34-.49.12-1.31.74-1.36 3.6A6.08 6.08 0 0 0 18 33.73c-.21-.13-.41-.27-.61-.41a7.56 7.56 0 0 1 .73-2.78 6.25 6.25 0 0 1 2.1-2.45c.1-2.82 1-3.65 1.78-3.84a.79.79 0 0 1 .68.14 1 1 0 0 1 .38.73 2.35 2.35 0 0 0 .7 1.5 7.41 7.41 0 0 1 1 .17v-.27l.24-2.3a.91.91 0 0 1 .77-.77c1.47-.21 4.74-1.08 4.95-4.61A.92.92 0 0 0 30 18l-3.11-.76a1.39 1.39 0 0 0-1-1.06c-.64-.22-2.85-1.49-5-1 .82 1.25 2.65 4.34 2.51 6.82a1.08 1.08 0 0 1-.7.91 5.76 5.76 0 0 1-1.78.28 5.15 5.15 0 0 1-3.83-1.68v1.38c0 2.56-3.27 5-3.27 5l-.33.69a11.44 11.44 0 1 1 10.52 7zm1.19-5.57a.4.4 0 0 1 .4-.4.39.39 0 0 1 .39.4.38.38 0 0 1-.39.39.39.39 0 0 1-.4-.39zm-.4-11.48a.4.4 0 1 1 .8 0 .4.4 0 0 1-.8 0z"/>
  <path class="cls-2" d="M18.58 16.45s-1 .68-1.37 4a4.57 4.57 0 0 0 5.29 1.71.39.39 0 0 0 .22-.28c.14-2.37-1.81-5.52-2.51-6.57a4.37 4.37 0 0 0-1.63 1.14z"/>
  <path fill="#d63c3c" d="M178.05 23.86h-5.68v-5.68h-1.64v5.68h-5.68v1.64h5.68v5.68h1.64V25.5h5.68v-1.64z"/>
  <path class="cls-1" d="M63.28 30.22a8.17 8.17 0 0 1-3.14-3.06A8.57 8.57 0 0 1 59 22.78a8.52 8.52 0 0 1 1.14-4.38 8 8 0 0 1 3.15-3.06 9.76 9.76 0 0 1 8-.48A7.09 7.09 0 0 1 74 16.68l-1.13 1.13a6.68 6.68 0 0 0-5-2 7.29 7.29 0 0 0-3.62.91 6.73 6.73 0 0 0-2.56 2.49 7.33 7.33 0 0 0 0 7.11 6.66 6.66 0 0 0 2.56 2.49 7.3 7.3 0 0 0 3.62.92 6.61 6.61 0 0 0 5-2L74 28.85a7.27 7.27 0 0 1-2.7 1.83 9.16 9.16 0 0 1-3.47.64 9.25 9.25 0 0 1-4.55-1.1zM78.68 30.47a6 6 0 0 1-2.31-2.29 7 7 0 0 1 0-6.63 6 6 0 0 1 2.31-2.28 7.07 7.07 0 0 1 6.57 0 6 6 0 0 1 2.3 2.28 7.11 7.11 0 0 1 0 6.63 6 6 0 0 1-2.3 2.29 6.92 6.92 0 0 1-6.57 0zm5.7-1.3a4.31 4.31 0 0 0 1.67-1.74 5.78 5.78 0 0 0 0-5.13 4.19 4.19 0 0 0-1.67-1.74 5 5 0 0 0-4.83 0 4.27 4.27 0 0 0-1.68 1.74 5.7 5.7 0 0 0 0 5.13 4.4 4.4 0 0 0 1.68 1.74 5.09 5.09 0 0 0 4.83 0zM102 19.84a5.38 5.38 0 0 1 1.41 4v7.32h-1.71V24a4.22 4.22 0 0 0-1-3 3.73 3.73 0 0 0-2.7-1 4.34 4.34 0 0 0-3.23 1.21 4.6 4.6 0 0 0-1.19 3.35v6.63h-1.7V18.55h1.63v2.33a4.83 4.83 0 0 1 1.93-1.79 6.25 6.25 0 0 1 2.87-.63 5.14 5.14 0 0 1 3.69 1.38zM108.5 30.85a6.36 6.36 0 0 1-2.2-1.11l.77-1.35a6.31 6.31 0 0 0 2 1 7.75 7.75 0 0 0 2.5.4 4.74 4.74 0 0 0 2.55-.54 1.71 1.71 0 0 0 .83-1.53 1.39 1.39 0 0 0-.45-1.09 3.18 3.18 0 0 0-1.16-.6 16.17 16.17 0 0 0-1.84-.39 23.11 23.11 0 0 1-2.48-.59 3.64 3.64 0 0 1-1.59-1 2.85 2.85 0 0 1-.66-2 3.14 3.14 0 0 1 1.32-2.6 5.93 5.93 0 0 1 3.67-1 9.37 9.37 0 0 1 2.45.32 6.83 6.83 0 0 1 2 .85l-.74 1.38a6.37 6.37 0 0 0-3.72-1.08 4.26 4.26 0 0 0-2.46.58 1.76 1.76 0 0 0-.83 1.51 1.5 1.5 0 0 0 .47 1.15 2.91 2.91 0 0 0 1.16.64q.7.19 1.92.42a22.44 22.44 0 0 1 2.43.57 3.48 3.48 0 0 1 1.56 1 2.7 2.7 0 0 1 .65 1.92 3 3 0 0 1-1.38 2.62 6.56 6.56 0 0 1-3.83 1 9.52 9.52 0 0 1-2.94-.48zM131.14 18.55v12.63h-1.63v-2.31a4.62 4.62 0 0 1-1.85 1.79 5.6 5.6 0 0 1-2.69.64 5.39 5.39 0 0 1-3.9-1.38 5.38 5.38 0 0 1-1.42-4.05v-7.32h1.7v7.15a4.26 4.26 0 0 0 1 3 3.69 3.69 0 0 0 2.81 1 4.14 4.14 0 0 0 3.15-1.21 4.73 4.73 0 0 0 1.15-3.37v-6.57zM135.89 13.37h1.71v17.81h-1.71zM149 30.41a3.2 3.2 0 0 1-1.19.66 4.81 4.81 0 0 1-1.47.23 3.35 3.35 0 0 1-3.7-3.68V20h-2.25v-1.45h2.25v-2.76h1.71v2.76h3.84V20h-3.84v7.54a2.35 2.35 0 0 0 .56 1.71 2.09 2.09 0 0 0 1.62.59 3 3 0 0 0 1-.17 2.44 2.44 0 0 0 .85-.48zM160.3 19.69a4.79 4.79 0 0 1 1.32 3.66v7.83H160v-2a3.93 3.93 0 0 1-1.69 1.53 5.93 5.93 0 0 1-2.66.56 5.19 5.19 0 0 1-3.35-1 3.47 3.47 0 0 1-.1-5.27 5.74 5.74 0 0 1 3.71-1h4v-.77a3.21 3.21 0 0 0-.91-2.43 3.73 3.73 0 0 0-2.66-.86 6.82 6.82 0 0 0-2.3.4 5.8 5.8 0 0 0-1.9 1.09l-.77-1.27a6.94 6.94 0 0 1 2.31-1.26 8.83 8.83 0 0 1 2.83-.44 5.35 5.35 0 0 1 3.79 1.23zm-1.92 9.6a3.93 3.93 0 0 0 1.54-1.91v-2.06h-4c-2.16 0-3.24.75-3.24 2.26a2.08 2.08 0 0 0 .84 1.74 3.84 3.84 0 0 0 2.35.63 4.49 4.49 0 0 0 2.51-.66z"/>
</svg>
